<?xml version="1.0" standalone="no"?>
<!DOCTYPE svg PUBLIC "-//W3C//DTD SVG 1.1//EN" "http://www.w3.org/Graphics/SVG/1.1/DTD/svg11.dtd" >
<svg xmlns="http://www.w3.org/2000/svg" xmlns:xlink="http://www.w3.org/1999/xlink" version="1.1">
<metadata></metadata>
<defs>
<font id="amatica_scbold" horiz-adv-x="754" >
<font-face units-per-em="2048" ascent="1638" descent="-410" />
<missing-glyph horiz-adv-x="700" />
<glyph horiz-adv-x="0" />
<glyph unicode="&#xd;" horiz-adv-x="682" />
<glyph unicode=" "  horiz-adv-x="700" />
<glyph unicode="&#x09;" horiz-adv-x="700" />
<glyph unicode="&#xa0;" horiz-adv-x="700" />
<glyph unicode="!" horiz-adv-x="574" d="M188 33q0 36 25 64t60 28q38 0 61 -28.5t23 -70.5q0 -72 -101 -72q-25 0 -46.5 22.5t-21.5 56.5zM235 1493q0 32 26.5 55.5t60.5 23.5q21 0 35.5 -14.5t14.5 -35.5q0 -164 -21 -490q-22 -318 -22 -489q0 -107 -3 -156t-10 -65t-23 -16q-21 0 -38 50q-18 50 -18 151 q0 39 4 147q4 101 4 167q0 88 -5 336t-5 336z" />
<glyph unicode="&#x22;" horiz-adv-x="682" d="M212 1531q0 -88 3 -213t6 -125h7q18 0 35 53.5t28.5 129t11.5 135.5v7q-1 3 -1 7q-8 53 -49 53q-16 0 -28.5 -13.5t-12.5 -33.5zM398 1531q0 -86 10 -212t19 -126h7q23 0 39 120q17 125 20 218q-9 47 -34 47q-23 0 -42 -14t-19 -33z" />
<glyph unicode="#" horiz-adv-x="862" d="M92 637q0 -66 85 -66q10 0 60 5q-71 -369 -71 -612q0 -19 18 -31.5t40 -12.5q24 0 43 58q20 58 30 150q16 133 30 351q4 79 8 103l50 3q101 0 142 -4q-3 -101 -34 -302q-31 -202 -31 -316q0 -44 71 -44l35 42q0 87 9 188t26 241q15 123 21 197l30 -1h6q77 0 78 51h-1 q0 62 -85 62h-11l-10 -1q1 153 25 264l67 -3q18 0 29 10q11 9 16 20.5t9 30.5l-43 47h-66q1 73 38 227q35 154 35 231q0 15 -16 28t-32 13q-29 0 -53 -31l-19 -125l-3 -24q-26 -199 -52 -324q-35 -8 -88 -8h-36q-39 0 -55 4q2 80 19 229q18 153 18 233l-23 47h-15 q-30 0 -41.5 -18.5t-11.5 -54.5q0 -11 1 -19v-18q0 -61 -6.5 -126t-20.5 -156l-18 -126q-32 -3 -63 -3q-17 0 -31 1h-32l-30 -33v-10q0 -59 97 -59l51 3q-12 -162 -31 -267l-26 1q-15 1 -36 1q-96 0 -96 -46zM343 686q6 172 32 268q35 6 86 6q59 0 96 -8q-1 -76 -33 -261 q-51 -6 -156 -6q-20 0 -25 1z" />
<glyph unicode="$" horiz-adv-x="846" d="M166 1245q0 -75 24 -143t69 -138.5t133 -189.5l22 -722q-13 -4 -34 -4q-16 0 -52 16q-38 15 -61 15q-22 0 -34 -15.5t-12 -39.5q0 -26 33 -42q52 -27 126 -27q21 0 37 2l4 -136v-16q0 -63 36 -63q59 0 59 93v155q78 46 121 144t43 208q0 144 -66 266q-33 61 -62 104.5 t-80 109.5l-29 642q24 7 56 7q30 0 78 -7q54 -8 73 -8l35 44q-14 32 -49 53t-72 21q-62 0 -125 -15v27q0 32 -14 54t-31 22q-27 0 -27 -54l2 -73q-94 -43 -148.5 -123.5t-54.5 -166.5zM265 1258q0 46 28 95t79 80q10 -387 15 -496q-61 89 -91.5 165t-30.5 156zM480 647 q106 -166 106 -302q0 -51 -22.5 -118.5t-59.5 -113.5z" />
<glyph unicode="%" horiz-adv-x="1296" d="M158 1163q0 -69 3 -130q2 -42 7 -72.5t15 -79.5q8 -39 22 -68t36 -59q39 -54 112 -54q76 0 117 31q38 28 52 77.5t15 115.5q1 86 4 136t14 81l1 -1v7q0 406 -229 406q-46 0 -82 -45t-54 -116q-33 -132 -33 -229zM257 1165q0 35 13 105t31 124.5t33 54.5q128 0 128 -357 q0 -292 -112 -292q-20 0 -36.5 22t-25.5 59q-20 77 -26 162q-5 75 -5 122zM440 52q0 -37 39 -60q48 1 80 95q13 42 21.5 77t18.5 87l7 42t3 15q12 57 91 355q181 680 181 824q0 21 -16 35t-38 14q-25 0 -40.5 -31.5t-16.5 -67.5l-1 1l-60 -218q-91 -335 -171 -654 q-98 -386 -98 -514zM755 370q0 -38 4 -77q4 -45 16.5 -97.5t29.5 -92.5q19 -45 50 -73t68 -28q67 0 115 36t72 98q22 58 32 117t10 125v100q0 76 -12 153t-58 143q-21 30 -55.5 47t-76.5 17q-72 0 -112 -55q-22 -30 -36 -60t-22 -69q-10 -49 -15 -81t-7 -74q-3 -61 -3 -129z M853 366q0 38 3 86q11 171 39 235q19 46 49 46q33 0 56.5 -29.5t33.5 -79.5q18 -89 18 -157v-81q0 -270 -124 -270q-16 0 -33.5 47.5t-29.5 109.5t-12 93z" />
<glyph unicode="&#x26;" horiz-adv-x="990" d="M102 324q0 -76 35 -154q36 -80 103.5 -131t144.5 -51q116 0 231 78q107 -77 198 -77q52 0 78 14.5t26 53.5l-38 31q-14 0 -41 -3q-28 -3 -42 -3q-68 0 -130 63q84 111 84 438h51h3q1 -1 3 -1q45 0 76 13.5t31 42.5q0 42 -58 54q-33 -11 -105 -18.5t-127 -7.5v-52l5 -10 q3 -9 5 -11q1 -1 2 -2.5l3 -4.5q3 -5 7 -6t12 -1v-9q0 -218 -64 -362q-34 36 -83 159.5t-85.5 257t-36.5 191.5q0 23 33 69q10 14 19 29q85 98 125.5 197t40.5 219q0 48 -31 90.5t-80 68t-99 25.5q-58 0 -93 -37.5t-35 -110.5v-170q0 -55 7 -142q7 -88 7 -139 q-36 -69 -45 -89q-15 -30 -40.5 -83.5t-32.5 -73.5l-25 -73q-19 -53 -23 -86q-16 -107 -16 -186zM197 359q0 231 108 400q58 -357 248 -631q-21 -21 -68.5 -38t-81.5 -17q-53 0 -94.5 26t-65.5 70q-46 85 -46 190zM363 1261v109q23 50 52 50q22 0 45.5 -28t39.5 -66.5 t16 -64.5q0 -50 -46.5 -138t-103.5 -160v23q0 77 -1 138z" />
<glyph unicode="'" horiz-adv-x="538" d="M212 1531q0 -86 10 -212t19 -126h7q18 0 35 53.5t28.5 129t11.5 135.5v7q-1 3 -1 7l5 6q-17 47 -54 47q-23 0 -42 -14t-19 -33z" />
<glyph unicode="(" horiz-adv-x="664" d="M172 881q0 -69 12 -208t34 -307q27 -205 59.5 -358.5t77.5 -256.5q49 -112 103 -112q38 0 56 43l2 -1q-14 52 -57 131q-19 33 -31 58q-78 172 -116 442.5t-38 566.5q0 142 23.5 285.5t67.5 251.5q20 44 29 62q23 48 33.5 79.5t10.5 63.5l-36 30h-9q-49 0 -93 -102 q-46 -104 -71 -239q-26 -132 -41.5 -252.5t-15.5 -176.5z" />
<glyph unicode=")" horiz-adv-x="790" d="M244 -255q0 -20 16 -34t38 -14q59 0 119 151q59 147 100 348q39 198 64.5 373.5t25.5 245.5v2q-2 77 -14 190q-40 370 -112 535q-47 108 -105 108l-37 -29v-11q0 -30 11 -61t34 -74q22 -41 29 -59q44 -108 67.5 -273t23.5 -327q0 -131 -23 -297t-62.5 -324.5 t-88.5 -265.5q-4 -9 -29 -54q-57 -102 -57 -130z" />
<glyph unicode="*" horiz-adv-x="934" d="M59 1150q0 -34 13.5 -44t48.5 -10h241q-10 -27 -81 -169q-72 -141 -75 -182l1 -9l44 -46h49q25 39 46.5 89t51.5 132q28 80 36 100l87 -190q3 -49 22.5 -85t55.5 -36q22 0 37 15t15 37q0 40 -73 183q-72 139 -79 159q55 0 134 -4q98 -5 133 -5q71 0 71 52q0 62 -104 62 q-23 0 -76 -5t-59 -5q-49 0 -92 5q35 77 43 94q80 174 80 224q0 22 -17.5 38.5t-39.5 16.5q-20 0 -41 -24.5t-39 -68.5q-27 -65 -56 -162q-12 -42 -17 -54q-10 22 -35 91q-31 83 -60 140q-31 58 -56 58q-23 0 -39.5 -13t-16.5 -33q0 -12 11 -42q11 -32 30 -71 q33 -71 72 -145l23 -47h-243q-19 0 -32.5 -13.5t-13.5 -32.5z" />
<glyph unicode="+" horiz-adv-x="900" d="M158 655q0 -65 87 -65q16 0 61 5q36 4 53 4v-15q0 -37 7 -99q6 -67 6 -100q0 -22 20.5 -37t45.5 -15q27 0 47 16t20 40q0 28 -9 83q-10 51 -10 81q0 49 65 49q16 0 61 -5q40 -6 60 -6q24 0 41 16t17 40q0 62 -106 62q-31 0 -67 -4q-37 -4 -52 -4q-5 0 -10 8q-4 6 -7 23 q-7 35 -7 68q-1 13 -1 34l-2 50v25q0 25 -14.5 42t-37.5 17q-66 0 -66 -113q0 -27 6 -78l6 -72q-19 -4 -47 -4q-24 0 -60 4q-40 3 -61 3q-20 0 -33 -15.5t-13 -37.5z" />
<glyph unicode="," horiz-adv-x="563" d="M156 -175q0 -12 8.5 -19.5t21.5 -7.5q49 0 100 51q50 50 81 114.5t31 113.5q0 108 -71 108q-32 0 -52.5 -34.5t-27.5 -86.5q-8 -57 -25 -112t-41 -82q-25 -21 -25 -45z" />
<glyph unicode="-" horiz-adv-x="772" d="M164 715q0 -24 20 -41.5t47 -17.5q34 0 85 3q172 10 242 37q48 18 48 43t-20.5 42t-47.5 17q-33 0 -84 -3q-168 -10 -241 -37q-49 -18 -49 -43z" />
<glyph unicode="." horiz-adv-x="592" d="M212 41q0 -28 21 -50.5t48 -22.5q36 0 58.5 21t22.5 54q0 30 -22 53.5t-51 23.5q-31 0 -54 -24t-23 -55z" />
<glyph unicode="/" d="M156 -9q0 -20 7 -32.5t17 -12.5q15 0 20 23q39 85 123 392t167.5 650t112.5 492l2 17q0 21 -11 34t-26 13t-20 -14q-41 -134 -208 -810q-168 -679 -178 -713q-6 -22 -6 -39z" />
<glyph unicode="0" horiz-adv-x="808" d="M166 1158q0 -1151 248 -1151q220 0 220 514q0 1042 -294 1042q-51 0 -86.5 -25.5t-53.5 -75.5q-18 -48 -26 -105.5t-8 -134.5v-64zM264 1395q0 45 10.5 71t42.5 52q47 -7 85 -59t62 -139q50 -185 62 -389q13 -218 13 -363q0 -45 -4 -105q-14 -211 -49 -302 q-22 -61 -53 -61q-30 0 -55.5 42t-39.5 115q-31 149 -38 309q-7 161 -7 224q0 37 -10 100q-11 69 -11 100q0 83 -4 203t-4 202z" />
<glyph unicode="1" d="M92 1521q0 -44 58 -44q14 0 25 1l22 1q71 0 71 -96q0 -22 -1 -39l-2 -36q0 -198 31 -589t31 -599q0 -34 -45 -34q-33 0 -43 -7.5t-10 -31.5q0 -34 14 -45t50 -11q17 0 28 1h33q233 0 233 60q0 51 -87 51v-1q-15 0 -23 -1q-19 -1 -32.5 -2.5t-19.5 -2.5v13q0 169 -22 486 q-22 315 -22 484q0 64 -15 188q-16 121 -16 188q0 31 12 86q-19 34 -105 34q-165 0 -165 -54z" />
<glyph unicode="2" d="M140 47q0 -27 22.5 -44.5t52.5 -17.5q57 0 156 10q104 9 156 9q27 23 27 45q0 27 -43 58q-117 0 -242 -21q33 100 92 246q49 121 107 276q47 127 80.5 290.5t33.5 302.5v55q-3 74 -8 115q-12 75 -30 107q-33 60 -65 79q-51 30 -117 30v-1q-43 0 -74 -34 q-30 -33 -44 -75.5t-14 -86.5q0 -63 50 -63q25 0 40.5 21.5t20.5 53.5q5 33 16.5 61t28.5 37q98 -8 98 -264q0 -238 -55 -453t-176 -484q-11 -23 -30 -79q-21 -58 -39.5 -97t-43.5 -68v-8z" />
<glyph unicode="3" d="M100 1416q4 -24 21 -40t40 -16q26 0 44 17.5t26 41.5t25 41t40 17q31 0 55 -39t34 -101q18 -111 18 -187q0 -42 -19.5 -85.5t-45.5 -72.5q-30 -33 -48 -59t-18 -44q0 -20 18.5 -31t44.5 -11q13 0 21 2q87 -107 109 -269q11 -77 13.5 -131t2.5 -155q0 -230 -125 -230 q-26 0 -41.5 9t-31.5 26q-11 11 -28 11q-22 0 -28 -6.5t-6 -27.5q0 -33 27 -56q46 -40 124 -40q48 0 85 17t59 50q24 34 38 69t20 81q10 80 10 164q0 137 -33 306q-19 92 -55 162t-83 98l31 45l33 49q11 18 19.5 47t8.5 56q0 63 -4 112q-5 57 -19.5 119.5t-34.5 108.5 q-23 49 -61.5 79t-85.5 30q-67 0 -119 -42.5t-81 -114.5z" />
<glyph unicode="4" horiz-adv-x="700" d="M172 512q42 -33 80 -33v1q16 0 59 5l53 6q4 -25 4 -63q0 -25 -1 -44q-1 -20 -1 -45q0 -29 8 -99q7 -62 7 -100q0 -35 -11 -74v-7q0 -36 18 -66.5t47 -30.5q24 0 36 22t12 55v37q-9 15 -9 41q0 17 4 38q-9 21 -15 135.5t-6 198.5q0 18 33 18q82 0 82 50q0 44 -61 44 q-6 0 -34 -2l-25 -3q4 140 4 476v98l-32 36q-19 0 -36 -13t-17 -33q0 -89 -9 -283q-10 -184 -10 -290q-36 -9 -75 -11q-3 23 -3 46q0 87 15 261q14 179 14 260q0 55 -6 109v7q-4 15 -4 37q0 10 1 19v18q0 22 5 80q4 47 4 79q0 22 -18.5 36.5t-42.5 14.5q-17 0 -26 -6 q-8 -6 -10.5 -13t-2.5 -21v-379q0 -66 -15 -207q-16 -137 -16 -211q0 -67 9 -115q-9 -33 -9 -79z" />
<glyph unicode="5" horiz-adv-x="772" d="M148 1540l14 -83l25 -170q11 -89 11 -175q0 -14 -5 -52q-6 -34 -6 -52q0 -45 12 -78q7 -19 23 -29t40 -10q35 0 68 -11q33 -13 55 -30.5t39 -47.5q19 -34 30 -62.5t19 -71.5q9 -48 13 -81.5t6 -84.5q3 -71 3 -174q0 -50 -13.5 -111.5t-37.5 -108.5t-55 -58q-23 17 -53 17 q-26 0 -44.5 -12t-18.5 -34q0 -58 112 -58q11 0 19 1h16q36 28 64 58q30 32 47.5 58.5t29.5 61.5q14 43 19.5 68t8.5 68q3 40 3.5 74.5t0.5 81.5q0 77 -9 176q-11 113 -43 219t-76 136q-17 11 -40 18q-25 7 -39 9.5t-47 5.5q-38 3 -40 4q-36 373 -40 486h87v-6h51l38 31v11 q0 52 -85 52h-167z" />
<glyph unicode="6" d="M183 706q0 -156 12 -315q6 -85 21 -151.5t39 -129.5q23 -60 59.5 -92t83.5 -32q46 0 77 15t48 37t27 59q8 34 10.5 62t2.5 77q0 62 -1 91q-1 48 -7 124t-14 135q-11 68 -30 137.5t-42 115.5q-26 51 -65.5 82t-86.5 31q-15 0 -32 -3q3 69 12 168q11 117 32 226t45 132 q32 6 55 25t23 45q0 15 -16 28t-32 13q-220 0 -220 -706v-78q-1 -39 -1 -96zM284 770q0 42 9.5 67.5t35.5 44.5q41 -8 71 -96q29 -86 43 -210q24 -230 24 -364q0 -139 -53 -139q-23 0 -41.5 23.5t-31.5 67.5q-29 98 -39 208q-12 131 -15 233q-3 122 -3 165z" />
<glyph unicode="7" horiz-adv-x="664" d="M164 1549q0 -18 14 -34t34 -26q97 9 130 9q20 0 48 -4q-7 -318 -55.5 -663t-128.5 -649l-15 -48q-22 -66 -22 -110l39 -35q34 0 57 35.5t23 76.5q0 15 -1 18q36 105 68 296.5t52 394.5q50 533 87 713q-8 27 -24 40q-16 12 -32.5 15.5t-47.5 3.5h-38q-188 0 -188 -33z" />
<glyph unicode="8" horiz-adv-x="718" d="M148 1421q0 -62 20.5 -139.5t50.5 -146.5q30 -70 50 -143.5t20 -128.5q0 -91 -48 -321q-48 -229 -48 -344q0 -93 32 -176q18 -47 52 -75.5t78 -28.5q131 0 194 142v1q0 5 1 9l2 20v14q-1 7 -1 15q0 165 -45.5 371.5t-116.5 371.5l11 48l12 52q8 33 21 100q14 74 17 101 q2 19 6 48q5 45 5 102q0 75 -5 127q-4 29 -11 47.5t-23 42.5q-25 38 -89 77h-43q-68 0 -105 -53t-37 -133zM248 1413q0 72 28 103v-1h21l22 1q14 0 26 -37t18.5 -86t6.5 -81q0 -146 -45 -305q-26 82 -51.5 211.5t-25.5 194.5zM288 188v2q0 156 15 311t43 249 q58 -203 84.5 -340.5t26.5 -269.5q0 -61 -24.5 -97.5t-75.5 -36.5q-17 0 -28.5 20.5t-14.5 44.5v10q-26 57 -26 107z" />
<glyph unicode="9" horiz-adv-x="736" d="M180 1243q0 -75 33.5 -140t92.5 -110t135 -62l2 -112l2 -133q0 -584 -32 -682l32 -38q34 0 51 23.5t17 59.5v22q-1 9 -1 19q0 29 7 75t7 72q0 198 12 592q12 395 12 591q0 70 -15.5 112t-53 62t-103.5 20q-48 0 -86 -27q-35 -26 -56.5 -64.5t-34.5 -94.5 q-12 -50 -16.5 -93.5t-4.5 -91.5zM280 1247q0 63 19 161q10 52 31.5 85.5t48.5 33.5q42 0 57.5 -24.5t15.5 -75.5q0 -262 -9 -418l-29 17q-21 11 -27 15q-10 6 -25.5 16t-20.5 15q-4 3 -18 17q-11 10 -16 21q-9 21 -11 25q-8 15 -9 31q-7 37 -7 81z" />
<glyph unicode=":" horiz-adv-x="592" d="M204 250q0 -28 21 -50.5t48 -22.5q34 0 57 21t23 54q0 30 -21.5 53.5t-50.5 23.5q-31 0 -54 -24t-23 -55zM225 1024q0 -28 20.5 -50.5t47.5 -22.5q36 0 58.5 21t22.5 54q0 30 -22 53.5t-51 23.5q-30 0 -53 -24.5t-23 -54.5z" />
<glyph unicode=";" horiz-adv-x="610" d="M188 -1q0 -12 8.5 -19.5t21.5 -7.5q43 0 86 51q43 50 69.5 114.5t26.5 113.5q0 108 -71 108q-34 0 -48 -57q-17 -63 -29 -139q-13 -81 -39 -119q-25 -21 -25 -45zM264 1025q0 -28 20.5 -50.5t47.5 -22.5q36 0 58.5 21t22.5 54q0 30 -22 53.5t-51 23.5q-30 0 -53 -24.5 t-23 -54.5z" />
<glyph unicode="&#x3c;" horiz-adv-x="774" d="M158 698q11 -23 48 -119q88 -230 161 -380q49 -101 99.5 -161t91.5 -60q23 0 37.5 21t16.5 50h-26q-37 66 -174 352t-137 301q0 53 34 144.5t85 190.5q51 101 91 204t48 170l-45 35q-3 0 -4 1h-3q-30 0 -109 -175q-51 -110 -100.5 -236.5t-81 -221.5t-32.5 -116z" />
<glyph unicode="=" horiz-adv-x="882" d="M158 634q0 -45 82 -45q56 0 216 -5t216 -5q21 0 34.5 13t13.5 34q0 54 -209 54h-307q-21 0 -33.5 -12.5t-12.5 -33.5zM158 826q0 -59 123 -59q7 0 43 2l35 1h9q39 -3 58 -4q48 -2 88 -2q216 0 216 54t-159 54h-367q-21 0 -33.5 -12.5t-12.5 -33.5z" />
<glyph unicode="&#x3e;" horiz-adv-x="774" d="M158 24q0 -21 12.5 -34t30.5 -13q3 0 19 2t19 2l361 717q-1 45 -62 219q-65 185 -142.5 347.5t-115.5 179.5v2l-55 -35q2 -58 28 -132q19 -56 44 -108t70 -141q9 -16 25 -48q41 -80 65.5 -153t24.5 -127q0 -19 -81 -169q-109 -203 -176 -338.5t-67 -170.5z" />
<glyph unicode="?" horiz-adv-x="682" d="M184 1340q0 -137 58 -137q10 0 25 9.5t26 20.5q10 10 10 12q-14 98 -14 111q0 91 39 91q61 0 61 -189q0 -130 -28 -299q-10 -62 -16 -94q-35 -211 -53 -345t-18 -251q12 -46 50 -46q4 0 10 3q5 3 41 3q-1 25 -1 137q0 144 18.5 279.5t44.5 221.5q26 90 44 193.5t18 199.5 q0 34 -2 80q-3 38 -14 78.5t-28 65.5q-19 28 -53 45.5t-78 17.5q-52 0 -85 -30q-31 -28 -43 -66.5t-12 -91.5v-19zM252 68q0 -30 22 -52q21 -24 50 -24q39 0 61 19.5t22 58.5q0 16 -11.5 34.5t-29 31t-34.5 12.5q-30 0 -55 -25.5t-25 -54.5z" />
<glyph unicode="@" horiz-adv-x="1260" d="M150 956q0 -1076 415 -1076q106 0 200 29.5t151 74.5q52 41 82.5 81t30.5 65q0 20 -18 20q-19 0 -43 -15.5t-63 -48.5q-35 -29 -75 -53q-44 -28 -113 -46t-148 -18q-46 0 -86 26q-39 25 -67.5 66t-52.5 104q-23 61 -37 122.5t-26 143.5q-11 78 -16.5 140t-8.5 141 q-4 102 -4 218v120q0 49 2 111q2 51 9.5 113t19.5 103q14 48 39.5 94t57.5 74q35 31 88 49t116 18q71 0 131 -30q57 -29 98.5 -78.5t73.5 -121.5q30 -67 49 -140t31 -162q19 -144 19 -304q0 -27 -2 -89q-4 -56 -17.5 -111t-33.5 -66l-29 46v9q-3 22 -10 106l-11 125 q-15 155 -37 258q-14 60 -36 117.5t-48 93.5q-28 39 -68 62.5t-87 23.5q-35 0 -68 -11q-32 -13 -54.5 -30t-39.5 -45q-19 -32 -30 -59t-19 -66q-9 -42 -13 -73t-6 -74q-3 -60 -3 -142q0 -52 1 -69q0 -34 2.5 -80t5.5 -77q4 -40 12.5 -83.5t18.5 -71.5q30 -83 69 -118 q51 -46 120 -46q65 0 125 59t94 154q53 -113 103 -113q36 0 64 15q28 14 46 35.5t31 54.5t19.5 62.5t10.5 69.5q5 54 5 124q0 79 -5 174q-6 90 -21.5 186t-37.5 176q-25 86 -65 164t-90 131q-54 57 -127.5 89t-160.5 32q-96 0 -168 -28q-76 -28 -124 -69t-81 -108 q-35 -71 -51.5 -129.5t-25.5 -144.5q-9 -82 -11 -133.5t-2 -150.5zM500 825q0 171 34 295q34 126 92 126q41 0 72.5 -56t47.5 -146q27 -163 27 -285v-154q0 -31 -22.5 -78t-54 -82t-58.5 -35q-66 0 -102 123q-36 122 -36 292z" />
<glyph unicode="A" horiz-adv-x="826" d="M124 64q19 27 51 192q27 141 67 375q46 272 84 457.5t80 312.5q46 142 90 142q43 0 66 -18q0 -76 40 -395t40 -420q0 -96 22 -310q21 -220 21 -330q0 -69 -68 -69q-33 0 -48 12t-15 41v267q-27 19 -99.5 33.5t-139.5 18.5q-20 -34 -34 -104l-6 -31q-16 -82 -29 -133 t-32 -82q-79 0 -90 41zM328 464q87 -23 182 -23q18 0 42 6q-3 44 -21 223q-47 474 -47 566q0 15 1 18q-20 -20 -56 -185t-67 -354.5t-34 -250.5z" />
<glyph unicode="B" d="M172 1370q0 -157 7 -416t7 -416q0 -65 -5 -252t-5 -252q0 -51 96 -51h8q72 0 134 32q57 30 95 75t68 107q48 103 48 177q0 151 -56.5 278t-175.5 207q45 32 83 89t60.5 124.5t22.5 128.5q0 99 -37 175t-107 118.5t-166 42.5q-26 0 -43 -15t-23 -42q-7 -26 -9 -47t-2 -51 v-12zM283 1357q0 64 29 64q37 0 71 -26.5t55 -67.5t21 -81v-73q-7 -16 -20 -56q-27 -81 -57 -140q-18 -37 -41.5 -60t-49.5 -29q0 89 -4 229t-4 240zM290 769h73l16 -7q16 -9 39 -36t46 -65q24 -41 39.5 -119.5t15.5 -172.5q0 -72 -26.5 -131.5t-76 -98.5t-116.5 -49 q0 409 -10 679z" />
<glyph unicode="C" horiz-adv-x="898" d="M164 792q0 -90 3 -162q2 -81 10 -167.5t21 -149.5q15 -73 39 -139.5t54 -107.5q34 -46 82 -72.5t106 -26.5q30 0 67 5q34 5 68 17t59 30q26 19 41.5 49t15.5 67q-31 31 -60 31q-24 0 -77 -36q-52 -37 -87 -37q-85 0 -133 76q-26 41 -42.5 84t-27.5 101q-12 67 -18.5 118 t-8.5 116q-5 115 -5 219v49q0 24 9 72q9 47 9 71t-3 70q-3 47 -3 71q0 49 1 66q1 28 5.5 64t11.5 57q9 26 24 50t34 38q49 33 126 33v-5h28v1q6 -11 29 -18t44 -7q24 0 40.5 12.5t16.5 33.5q0 29 -21.5 51.5t-55 35.5t-66.5 13q-92 0 -166.5 -34t-117 -96.5t-42.5 -144.5 q0 -31 6 -64q-14 -75 -14 -189q0 -60 -1 -115t-1 -130z" />
<glyph unicode="D" horiz-adv-x="862" d="M132 1481q0 -35 23 -129q22 -89 22 -146q0 -38 -3 -113t-3 -111q0 -118 19 -337t19 -339q0 -194 -45 -241q0 -33 29.5 -51.5t70.5 -18.5q73 0 141 55q64 51 114 131.5t93 187.5q37 96 57 186t20 156l-2 20q-3 14 -3 24t5 18v95v65q-1 35 -5 88.5t-9 93.5 q-8 49 -21.5 105.5t-30.5 98.5q-20 48 -48.5 92.5t-61.5 72.5q-37 31 -86.5 49.5t-106.5 18.5h-31q-157 0 -157 -71zM258 1427v2q67 0 121.5 -27t88.5 -76q73 -105 95 -231q21 -129 21 -241q0 -203 -56 -405q-31 -109 -88.5 -197.5t-132.5 -137.5v196q0 188 -24 560 q-25 365 -25 557z" />
<glyph unicode="E" horiz-adv-x="718" d="M172 1454q0 -33 14 -105t14 -104v-1190q0 -46 34 -58q16 -6 29.5 -7.5t38.5 -1.5h64q33 0 67 2q30 3 62.5 18.5t45.5 41.5v7q0 54 -117 54l-114 -6v632q12 15 42 15q16 0 28 -1q11 -1 23 -1q23 0 38.5 18.5t15.5 44.5q0 23 -18 40t-42 17q-27 0 -66 -11q-31 -7 -30 -7 q0 27 5 115q5 87 5 119q0 49 -8 169t-8 169q5 1 22 1t30 -1t29 -1q93 0 93 61q0 28 -30.5 47.5t-63.5 19.5q-25 0 -76 -9t-76 -9q-17 -17 -51 -72v-7z" />
<glyph unicode="F" horiz-adv-x="682" d="M164 1440q13 -20 27.5 -278.5t24.5 -576t10 -456.5q0 -131 59 -131q31 0 50 16t19 42q0 14 -4 25l3 6l2 7q0 118 -19 334q-20 228 -20 333l23 1q29 1 62 6q18 2 30 6.5t29 12.5q26 12 26 41q0 24 -16.5 43.5t-39.5 19.5q-26 0 -69 -10.5t-45 -11.5q-2 95 -16 272 q-15 183 -15 278q0 23 57 23q18 0 30 -1l20 -1q24 0 40.5 11.5t16.5 32.5q0 40 -20.5 55t-66.5 15q-39 0 -53 -1q-24 -1 -53.5 -7.5t-46.5 -17.5q-20 -13 -32.5 -35.5t-12.5 -52.5z" />
<glyph unicode="G" horiz-adv-x="894" d="M164 862q0 -47 1 -81v-70q0 -66 1 -92q0 -41 4.5 -105.5t10.5 -111.5q7 -56 19.5 -116.5t29.5 -102.5q20 -51 48 -96.5t60 -72.5q36 -32 83.5 -50t102.5 -18q24 0 48 8t58 27q36 20 45 23v-2q16 -43 68 -43q22 0 36 16t14 40q0 57 -20 182q-21 122 -21 183q0 47 -23 78 t-64 31t-102 -13q-33 -7 -54 -21.5t-21 -33.5q0 -58 70 -58q20 0 48 4l32 4q15 -26 23.5 -96t9.5 -138q-60 -86 -151 -86q-47 0 -85 21q-38 20 -64 52t-44 82q-18 48 -28.5 95.5t-16.5 109.5q-6 56 -7.5 100t-1.5 106q0 43 1 71v56q0 101 4 194q2 63 7.5 115t17.5 134 q8 64 24 115t39 101q21 45 52 68.5t69 23.5q8 0 30 -5t29 -5q22 0 38 13.5t16 34.5q0 58 -85 58q-53 0 -97 -15q-45 -16 -78 -42.5t-60 -66.5q-27 -39 -44.5 -81.5t-31.5 -98.5q-26 -107 -33 -214q-7 -113 -7 -211z" />
<glyph unicode="H" horiz-adv-x="790" d="M164 1510q0 -118 1 -181q3 -390 15 -647q9 -202 21 -350.5t32 -232.5q21 -94 48 -94q19 0 31.5 16.5t12.5 37.5q0 111 -17 349t-17 345q36 16 121 16q15 0 68 -10q18 -331 18 -722q0 -30 13 -49t39 -19q25 0 42.5 23t17.5 51q0 235 -19 675q-20 462 -20 675q0 35 -1 46 q-1 20 -6.5 43t-14.5 35q-11 14 -31.5 23.5t-46.5 9.5v-54q0 -144 4 -344q4 -201 4 -328q-44 -2 -100 -7q-51 -6 -99 -8q-4 21 -4 53q0 22 1 39t1 38q0 79 -7 211q-7 130 -7 210q0 85 7 154q-9 12 -31.5 22.5t-40.5 10.5q-35 0 -35 -37z" />
<glyph unicode="I" horiz-adv-x="682" d="M140 64q0 -61 177 -61q36 0 85 3l54 2l51 35v12q0 72 -85 72q-21 0 -42 -3v79q0 208 -25 599t-25 599q0 24 9 33t30 9h16q8 -1 20 -1q21 0 34.5 16.5t13.5 38.5q0 23 -18 39.5t-42 16.5q-62 0 -145 -15q-48 -9 -78 -27.5t-30 -42.5q0 -49 48 -49q21 0 48 9q5 -53 5 -114 l-2 -104l-2 -105q0 -166 19 -473q19 -308 19 -474q0 -27 -7 -37.5t-23 -10.5l-19 2q-10 1 -24 1q-62 0 -62 -49z" />
<glyph unicode="J" horiz-adv-x="700" d="M189 1481q0 -21 15.5 -36.5t36.5 -15.5q23 0 62 10l27 6q29 -316 45 -713l9 -207l2 -84q0 -56 -1 -100l-2 -100q0 -86 -25.5 -167t-56.5 -122q-32 -13 -56 -36.5t-24 -46.5q0 -30 20.5 -46.5t53.5 -16.5q94 33 146 127.5t52 218.5q0 45 1 82v81q0 134 -18 399 q-19 259 -19 398q0 53 -12 159q-12 105 -12 158v16h28h3q1 -1 3 -1q85 0 85 53q0 24 -15 37q-15 12 -31.5 15.5t-45.5 3.5h-26q-245 0 -245 -72z" />
<glyph unicode="K" horiz-adv-x="844" d="M164 108q0 -115 60 -115q70 0 70 109v168q0 64 -6 190q-7 118 -7 190q0 33 2.5 58.5t3.5 30.5q2 22 22 61q26 52 42 80q84 -185 139.5 -395.5t110.5 -524.5q8 0 23 -4t25 -4q25 0 45 17.5t20 41.5q0 25 -132.5 444.5t-164.5 499.5v36q14 63 126 297q111 234 111 254 q0 23 -17 38.5t-41 15.5q-19 0 -54 -56t-74 -145q-75 -172 -140 -341q-34 -89 -39 -100l9 421q0 166 -76 166q-24 0 -41 -19t-17 -46q0 -57 15 -191q15 -133 15 -236q0 -123 -1 -213l-2 -176q0 -98 -13 -276q-14 -191 -14 -276z" />
<glyph unicode="L" horiz-adv-x="602" d="M172 1529q0 -233 21 -698q20 -478 20 -699q0 -15 -6 -44q-7 -28 -7 -46q0 -26 21 -45.5t48 -19.5q37 0 58 25q18 0 33 -1l33 -2q24 0 39 4l10 -3q11 -4 21 -4q22 0 37 17.5t15 40.5q0 31 -44 61h-156v52q0 344 -8 534v9q1 3 1 15q0 14 -1 25l-2 25q0 134 -10 368 q-11 258 -11 369q0 24 -18.5 41.5t-43.5 17.5q-21 0 -35.5 -12t-14.5 -30z" />
<glyph unicode="M" horiz-adv-x="1024" d="M172 132q0 -62 20 -94t70 -32q31 32 31 77q0 122 -8 421q-9 281 -9 421q0 102 4 247q12 -56 60 -230q48 -179 69.5 -301t21.5 -228q0 -191 73 -191q45 0 63 49q9 23 13.5 42.5t8.5 49.5l6 38v13q13 105 63 303q50 197 63 276v-104q0 -175 4 -431t4 -431q0 -38 12.5 -59.5 t32.5 -21.5q19 0 38 17t31 45t12 59q0 245 -18 734q-19 476 -19 734q0 19 -15 35.5t-33 16.5q-28 0 -48.5 -16t-24.5 -42v-12q-8 -121 -28 -255q-21 -133 -39 -223t-59 -275q-5 -22 -10.5 -47t-11.5 -53q-22 -95 -30 -136q-4 17 -30 158q-24 130 -53 268q-78 373 -133 509 q-38 90 -68 91l-57 -32q-3 -132 -3 -265q0 -161 4 -396q3 -264 3 -397q0 -43 -5 -165q-5 -123 -5 -167z" />
<glyph unicode="N" horiz-adv-x="952" d="M172 812q0 -61 13 -291t13 -344q0 -33 -5 -86t-5 -61q0 -32 45 -32q27 0 49.5 13t22.5 31q0 91 -14 292q-15 194 -15 292v672q116 -462 247 -906q125 -422 168 -422q24 0 41.5 29.5t17.5 61.5v626q0 142 7 379q6 254 6 378q0 35 12 60v12q0 80 -55 80t-67 -51v-606 q0 -145 -4 -357t-4 -357l-2 10l-32 142q-82 353 -140 570q-103 380 -171 528q-41 89 -69 89q-45 0 -45 -102v-13q0 -72 -7 -188t-7 -188v-261z" />
<glyph unicode="O" horiz-adv-x="880" d="M176 1038l2 -129q1 -54 1 -110q0 -32 2 -108q3 -66 10.5 -151.5t19.5 -157.5q13 -82 36 -164t52 -139q31 -62 77.5 -99t100.5 -37q57 0 103 48q45 45 69 106t24 118q0 80 13 135v9q0 43 9 128q9 86 9 131v118q0 122 -7 273q-3 75 -12 136t-25 140q-14 66 -37 117t-56 97 q-31 42 -75 64t-97 22q-39 0 -73 -17q-33 -18 -55 -46.5t-39 -72.5q-32 -85 -42 -193q-10 -96 -10 -218zM271 852v9q0 11 2 107l1 38q2 84 15 207q9 93 40 184q28 80 76 80q36 0 66.5 -28t51.5 -81q44 -113 61 -250q19 -167 24 -276q3 -97 3 -189q0 -65 -4 -136 q-7 -116 -19 -216.5t-37 -168.5q-29 -77 -70 -77q-47 0 -85 71q-36 66 -58.5 162t-39.5 227q-27 201 -27 337z" />
<glyph unicode="P" horiz-adv-x="718" d="M156 1520q53 -251 53 -731q0 -111 -5 -388q-5 -278 -5 -343q0 -28 13 -48.5t36 -20.5q34 0 51 23t17 62q0 96 -8 323q-8 226 -8 315q124 67 190 189t66 274q0 72 -21 141t-60 126q-40 57 -103 90.5t-137 33.5q-48 0 -79 -46zM271 1459l54 -39q62 -47 76 -65 q2 -3 18.5 -27.5t20.5 -49.5q11 -64 11 -119v-1q0 -105 -37.5 -188.5t-118.5 -158.5q-1 108 -12 324q-10 216 -12 324z" />
<glyph unicode="Q" horiz-adv-x="898" d="M172 574q0 -79 4 -128q4 -61 18 -125.5t37 -112.5q25 -54 66 -103.5t95 -84.5h84q3 -13 10 -57q5 -40 11 -66t16 -58q21 -65 77 -91v-1q50 -29 85 -29q91 0 91 63q0 35 -31 44q-14 4 -27.5 5t-29.5 1h-8q-15 0 -29 19.5t-23 53.5q-15 50 -27 125l-8 41q54 75 81 144 t36 148.5t9 204.5v92q0 52 1 99t1 110q0 57 -2 141q-2 66 -10 141.5t-20 130.5q-14 63 -37 119.5t-53 91.5q-33 39 -80 61.5t-103 22.5q-41 0 -76 -18q-34 -18 -57 -47.5t-41 -74.5q-17 -43 -27 -86t-16 -101q-9 -83 -9 -197q0 -48 1 -80l1 -64q0 -44 -5 -167t-5 -167z M273 653q0 91 4 186q4 144 15.5 290t34.5 240q26 105 62 105q41 0 74 -21q32 -22 53.5 -55t37.5 -86q15 -51 23 -99.5t13 -115.5q5 -60 6 -111.5t1 -107.5v-551q0 -149 -77 -220v1q-41 0 -56 -26v-2q-41 4 -74.5 38t-53.5 90q-43 121 -53 243q-10 115 -10 202z" />
<glyph unicode="R" horiz-adv-x="736" d="M180 44q0 -24 14.5 -40.5t37.5 -16.5q33 0 45 16t12 49v807q21 -83 75 -255q59 -189 90.5 -322.5t37.5 -240.5v-7q36 -55 74 -55q37 0 44 34q3 15 4.5 28t1.5 30v5l-60 181q-46 136 -73 224q-30 95 -53.5 208t-24.5 187l21 53l24 59q29 78 36 114q14 70 14 115 q0 48 -9 94q-10 48 -31 92.5t-50 78.5q-31 35 -74.5 55t-93.5 20q-33 0 -43.5 -9.5t-10.5 -34.5v-252q0 -244 -4 -600t-4 -601v-16zM282 1045q0 74 6 213q5 155 5 205q21 -4 39.5 -29t30.5 -62q24 -77 24 -138q0 -9 -2 -27l-32 -177q-33 -45 -69 -79q-2 42 -2 94z" />
<glyph unicode="S" d="M148 24q0 -26 33 -42q52 -27 126 -27q67 0 123 36t90 97q32 58 49.5 124t17.5 130q0 92 -21 184.5t-56 165.5q-32 68 -128 257l-15 30q-35 69 -56 150.5t-21 160.5q0 38 12 78q12 42 40.5 73t64.5 35q29 -20 80 -20l35 44q-14 32 -49 53t-72 21q-74 0 -126 -48 q-52 -46 -77 -111.5t-25 -139.5q0 -92 30 -190q22 -73 52 -138.5t79 -160.5l29 -57q47 -93 75 -190t28 -184q0 -37 -9.5 -86t-27.5 -99q-19 -54 -51.5 -88t-70.5 -34q-16 0 -52 16q-37 15 -61 15q-22 0 -34 -15.5t-12 -39.5z" />
<glyph unicode="T" horiz-adv-x="700" d="M135 1469q0 -24 20 -40t47 -16q16 0 58 5l53 6q19 -42 19 -191q0 -60 -1 -101l-2 -78q0 -98 14 -319t14 -319q0 -46 -8 -163t-8 -164q0 -42 17 -72.5t49 -30.5q59 0 59 100q0 54 -8 184q-9 122 -9 184q0 82 -9 236q-9 155 -9 235l2 133l2 131q0 129 -14 252q5 1 21 1 l36 -2l37 -2q27 0 44.5 15t17.5 39t-20 41t-46 17q-32 0 -85 -3q-168 -10 -242 -36q-49 -18 -49 -42z" />
<glyph unicode="U" horiz-adv-x="916" d="M148 1477q0 -25 15 -42q0 -79 -1 -151t-1 -169q0 -213 10 -393q6 -103 17.5 -189.5t30.5 -182.5q17 -87 45 -154t67 -123q37 -54 88 -82t113 -28q51 0 91 20q37 20 58.5 49.5t33.5 76.5q11 43 15 83t4 96q0 192 -18 535q-19 335 -19 515q0 19 8 64q7 38 7 61v34l-50 48 q-29 0 -53 -16t-24 -40q0 -51 8 -176q7 -109 7 -175l2 -59l2 -60v-14q0 -70 13 -193t13 -193v-400q0 -33 -2 -55.5t-9 -56.5q-7 -35 -26 -53.5t-48 -18.5q-47 0 -90.5 46.5t-70.5 117.5q-25 68 -40 134t-15 111q0 53 -9 133t-20 105q0 119 -9 357q-10 226 -10 355 q0 146 -74 146q-24 0 -41.5 -19t-17.5 -44z" />
<glyph unicode="V" horiz-adv-x="790" d="M116 1523q31 -156 125 -735q95 -589 146 -800q19 -22 48 -22q10 0 24 47q23 81 58 320q21 143 62 475q32 257 53 461q26 253 30 277l-43 23q-43 0 -75 -41q0 -168 -18 -357t-57 -462q-32 -218 -50 -370l-57 363q-55 356 -104 599q-52 262 -85 262q-45 0 -57 -40z" />
<glyph unicode="W" horiz-adv-x="1006" d="M68 1491q15 -36 61.5 -346t88.5 -633.5t42 -384.5q0 -156 75 -156q22 0 40.5 17.5t18.5 39.5q0 141 13 296q11 147 23.5 254.5t41.5 314.5l20 -134q18 -125 36 -238q54 -336 97 -466q29 -83 53 -83q29 0 45 19.5t16 51.5q0 150 22.5 348.5t55.5 375.5q32 178 54.5 375.5 t22.5 346.5q21 21 21 47q0 23 -19 39.5t-44 16.5q-43 0 -58.5 -19.5t-15.5 -66.5q0 -147 -15.5 -315t-47.5 -402q-32 -237 -40 -328q-19 113 -56 263q-46 187 -69.5 322t-23.5 251v31q0 60 -73 60q-20 0 -37 -20.5t-17 -42.5v-39q0 -65 -10 -174q-9 -105 -20.5 -206.5 t-26.5 -229.5l-21 -173q-1 3 -25 275l-3 33q-28 303 -66 516q-39 213 -88 213q-46 0 -71 -49z" />
<glyph unicode="X" horiz-adv-x="736" d="M140 26q0 -16 18 -27.5t38 -11.5q21 0 50 110q20 71 124 531q20 -86 57 -292q39 -227 46 -261q10 -49 60 -49q36 0 36 54q0 22 -4.5 46t-14.5 65q-10 35 -15 57q-24 112 -65 320.5t-41 227.5q0 42 21 136.5t62 253.5q38 147 54 218t16 101q0 21 -14 33t-36 12 q-20 0 -33 -28q-15 -32 -31 -107q-10 -42 -39 -188q-22 -110 -50 -240q-25 125 -29 147l-6 32q-4 18 -9 48l-8 38q-32 169 -48 218q-17 50 -46 50q-20 0 -33 -13.5t-13 -41.5q0 -12 5 -37l45 -201q48 -217 62 -288.5t14 -119.5q0 -65 -40 -241q-40 -182 -132 -545 q-1 -1 -1 -7z" />
<glyph unicode="Y" horiz-adv-x="682" d="M148 1513q0 -77 23 -177.5t56 -189.5q33 -91 56 -191.5t23 -178.5q0 -57 20 -177q19 -115 19 -178q0 -51 -5 -198t-5 -198q0 -21 15.5 -35.5t36.5 -14.5q28 0 48 17t20 43v52q0 17 -3 48q-4 28 -4 48q0 70 -5 272q-6 180 -6 271v31v7q0 12 3 30q3 23 3 34q0 120 49 346 t49 343q0 22 -54 22q-28 0 -49 -46t-33 -119q-19 -115 -32 -282q-6 -71 -10 -86q-4 14 -19 89l-28 141q-20 93 -37 158.5t-36 107.5q-23 47 -43 47q-18 0 -35 -11t-17 -25z" />
<glyph unicode="Z" horiz-adv-x="682" d="M156 31q20 -50 58 -50q51 0 127 4q75 4 126 4l32 32v9q0 63 -108 63q-29 0 -64 -4t-44 -4q227 885 227 1420q0 24 -16 41.5t-40 17.5q-35 0 -96 -10q-68 -11 -97 -11q-33 0 -58 7v-1l-28 -34v-9q0 -65 111 -65q13 0 43 2l74 8q-7 -130 -45 -423q-42 -327 -100 -627 t-102 -370z" />
<glyph unicode="[" horiz-adv-x="682" d="M156 -35q0 -24 29 -42t77 -24q77 -11 141 -11q29 0 47.5 10.5t18.5 33.5q0 74 -182 74h-21v42q0 231 40 699q40 467 40 711q0 20 38 20q21 0 58 -6q35 -7 57 -7t39 13t17 33t-21 35t-57 21q-57 10 -108 10h-78q-24 -10 -32.5 -22t-8.5 -36l1 -18q1 -9 1 -21 q0 -162 -26 -505q-27 -336 -27 -505q0 -84 -21 -252q-22 -166 -22 -253z" />
<glyph unicode="\" horiz-adv-x="736" d="M132 1505q0 -48 26 -133q0 2 7 -24l9 -36q9 -44 38 -200q27 -145 68 -348q45 -222 86 -394.5t82 -280.5q45 -120 79 -120v1q46 28 46 61q0 37 -44 280q-123 667 -232 1020q-69 224 -110 224q-22 0 -38.5 -14.5t-16.5 -35.5z" />
<glyph unicode="]" horiz-adv-x="808" d="M244 1511q0 -46 74 -46q24 0 69 6q48 5 65 5v-18q0 -251 38 -731q37 -466 43 -679v-42h-20h-27q2 0 -28 -2l-31 -3l-29 -6q-15 -3 -24.5 -7.5t-23.5 -14.5q-20 -14 -20 -41q0 -44 67 -44q64 0 142 11q48 6 77 24t29 42q0 86 -20 272q-21 182 -21 273q0 168 -28 485 t-28 486q0 42 -6 62.5t-20.5 27.5t-42.5 7h-19q-9 -1 -23 -1q-24 0 -37 -1q-22 -1 -51.5 -4.5t-49.5 -9.5q-24 -7 -39.5 -20.5t-15.5 -30.5z" />
<glyph unicode="^" horiz-adv-x="744" d="M171 389q0 44 31 179q5 20 28 174q18 123 25.5 164t30.5 133q18 76 25 114q3 24 4 46q4 65 18 129q10 41 32 62.5t53 19.5l32 -27q0 -69 8 -159q4 -54 19 -154q9 -72 22 -155q15 -101 69 -314l17 -63q1 -3 19 -70l7 -25q12 -47 12 -57q0 -14 -13.5 -27t-27.5 -13 q-19 0 -34.5 19.5t-25.5 55.5q-12 39 -26 111q-5 30 -7 35q-43 166 -105 582q-14 -60 -33 -207q-12 -94 -18 -128q-24 -152 -84 -446l-39 -16q-17 4 -28 14.5t-11 22.5zM375 1233l30 -60v120z" />
<glyph unicode="_" horiz-adv-x="1078" d="M244 -50q0 -16 24 -30t55 -14q81 0 316 5t316 5q38 2 89 2q23 0 39.5 14t16.5 32q0 17 -13 27.5t-37 10.5q-27 0 -48 -1q-22 -1 -49 -1h-659q-21 0 -35.5 -14.5t-14.5 -35.5z" />
<glyph unicode="`" horiz-adv-x="774" d="M255 1509q0 -11 82.5 -42t178 -59t117.5 -28q15 0 15 14q0 16 -72 62t-156 89.5t-97 43.5q-16 0 -31.5 -13t-26 -32.5t-10.5 -34.5z" />
<glyph unicode="a" horiz-adv-x="790" d="M124 44q0 -23 20 -39t45 -16t42 20q26 32 39 133q17 131 34 190l202 -30l8 -44q22 -144 22 -209q0 -38 22.5 -53t68.5 -15q34 13 34 58v2q0 32 -19 127q-20 100 -20 122q0 17 -11 63t-11 63q0 131 -41 442q-42 307 -42 463q0 25 -20 38.5t-50 13.5h-69q-16 -23 -24 -68.5 t-13 -121.5q-3 -39 -7 -83q-68 -509 -205 -1038l-2 -8q-3 -7 -3 -10zM312 408q27 211 120 726q8 -91 22 -212q17 -161 25 -267.5t8 -203.5q0 -46 6 -76q-147 11 -181 33z" />
<glyph unicode="b" horiz-adv-x="682" d="M172 88q0 -25 1.5 -39t7.5 -31q11 -38 55 -38q64 0 116 21q94 39 143 142q43 90 43 217t-20 209.5t-75 135.5q45 64 64 138t19 185q0 145 -61 246q-31 52 -84.5 80.5t-123.5 28.5q-38 0 -52.5 -23.5t-14.5 -69.5v-11l6 -51q5 -40 5 -55q0 -132 -4 -324q-5 -242 -5 -325 q0 -79 -10 -218t-10 -218zM288 186q0 26 4 70q3 48 3 77q0 178 9 310q33 -7 57 -36q23 -28 36 -63.5t21 -85.5q7 -43 8.5 -73.5t1.5 -76.5q0 -82 -36 -145.5t-102 -78.5v92q0 3 -1 5t-1 5zM301 763v305q0 168 24 220q84 -10 84 -276q0 -246 -108 -249z" />
<glyph unicode="c" d="M164 615q0 -38 1 -65v-55q0 -393 136 -481q26 -16 77 -29.5t95 -13.5q113 0 113 81q0 22 -18 33.5t-44 11.5q-19 -18 -44 -18q-39 0 -68 13q-30 12 -50 31t-34 49q-15 28 -22.5 56.5t-12.5 66.5q-7 57 -7 127q0 51 5 198q4 116 4 197v10q0 94 26 246q14 82 45 133.5 t71 51.5h96q18 1 31 17t13 37q0 23 -16 37.5t-47 14.5q-73 0 -127 -22q-58 -23 -93.5 -56t-60.5 -91q-27 -63 -40 -114t-19 -130t-8 -134t-2 -153v-49z" />
<glyph unicode="d" horiz-adv-x="826" d="M156 1286q0 -48 12 -183q12 -136 12 -202q0 -107 -3 -322q-3 -214 -3 -323q0 -268 52 -268h148q52 27 95 62q42 36 69.5 71.5t47.5 80.5q20 46 31 87.5t17 96.5q6 52 7.5 94.5t1.5 111.5v113l2 54l2 49q0 76 -19 151q-19 76 -56 146.5t-88 126.5t-118 88.5t-138 32.5 q-27 0 -49.5 -20.5t-22.5 -46.5zM286 1045q0 132 15 213q238 -28 238 -646q0 -47 -1 -71q-2 -39 -7.5 -92t-14.5 -97q-10 -50 -27 -98.5t-38 -81.5q-24 -36 -59 -58t-75 -22v49q0 151 -15 452q-16 292 -16 452z" />
<glyph unicode="e" horiz-adv-x="700" d="M180 436q0 -34 5 -131q5 -98 5 -131l2 -43q1 -19 1 -41v-54q1 -26 22.5 -44.5t49.5 -18.5h173q37 0 62.5 15t25.5 44q0 50 -78 50l-84 -2l-67 -3q-4 0 -4 115q0 48 5 186q4 111 4 185q0 77 -6 155h52q28 -4 58 -4q28 0 46.5 16.5t18.5 38.5q0 56 -99 56q-23 0 -40 -1 l-33 -2l-6 32q0 39 5 147q4 87 4 147q0 45 -3 88q61 -8 155 -39q26 10 43 26.5t17 37.5q0 25 -43.5 45.5t-103 33t-98.5 12.5q-86 0 -86 -145q0 -29 6 -86q5 -65 5 -87q0 -113 -7 -299t-7 -299z" />
<glyph unicode="f" horiz-adv-x="736" d="M164 13q40 -31 73 -31q53 0 53 90v580q37 -12 81 -12q29 0 50.5 17t21.5 43q0 54 -99 54h-21l-17 -1v55q0 77 10 208q9 137 9 203v24h24q65 0 107 -20q104 0 104 58q0 26 -31.5 44.5t-84.5 26.5q-82 12 -153 12q-32 0 -55.5 -16.5t-23.5 -44.5q0 -120 -8 -278v-50 q-7 -117 -14 -441q-9 -330 -26 -521z" />
<glyph unicode="g" horiz-adv-x="833" d="M162 611q0 -91 1 -120q1 -53 7 -125.5t16 -113.5q13 -55 34.5 -108.5t48.5 -82.5q32 -34 80 -55.5t105 -21.5q64 0 117.5 25t85.5 72.5t32 112.5q0 27 -5 109t-5 108q0 22 11 74t11 75q0 63 -184 63h-28v1q-31 0 -50.5 -15.5t-19.5 -43.5q0 -47 71 -47q13 0 22 1h18 q32 0 48 -8v-94q0 -326 -99 -326q-39 0 -70 21q-31 20 -51 50.5t-34 79.5q-15 49 -22.5 92.5t-11.5 103.5q-6 96 -6 191q0 88 8 206q10 145 44 277q17 65 44.5 102.5t62.5 37.5l21 -2q13 -3 22 -3q26 0 45.5 16t19.5 39q0 52 -87 52q-46 0 -86 -14t-69 -37.5t-52 -59.5 q-24 -38 -39 -75t-25 -87q-11 -55 -17 -97.5t-9 -96.5q-5 -77 -5 -195v-81z" />
<glyph unicode="h" horiz-adv-x="772" d="M172 1294q0 -87 7 -231t7 -231l-5 -81l-3 -39v-10q4 -12 4 -43v-29q-1 -15 -1 -35q0 -40 -3 -147q-3 -108 -3 -165q0 -132 16 -203q15 -75 56 -75q27 0 42.5 21.5t15.5 52.5q0 57 -6 169q-6 113 -6 168v235q26 -2 66 -10q44 -9 66 -9t37 4v-2q0 -3 6 -9q6 -7 6 -10 q0 -8 -2 -40q-1 -8 -1 -19v-8l-1 -93q0 -20 -1 -29l-1 -89q0 -337 70 -337q29 0 50 17t21 45l-19 517q-20 525 -20 777q-1 0 -19 7q-25 11 -41 11q-24 0 -41.5 -15.5t-17.5 -38.5q0 -90 14 -291q13 -186 13 -291q0 -16 -5 -26h-74q-76 0 -112 10q0 104 4 256q4 151 4 255 q0 122 -65 122q-24 0 -41 -18.5t-17 -42.5z" />
<glyph unicode="i" d="M148 1309q0 -31 16 -43t48 -12q13 0 24 1t23 1h39q10 -99 10 -220q0 -60 -5 -228q-6 -151 -6 -228q0 -81 7 -217t7 -218l-2 -14l-2 -13h-58q-12 -1 -24 -18.5t-12 -35.5q0 -46 73 -46l25 2q23 -4 119 -4h90q27 0 47.5 18.5t20.5 44.5q0 51 -84 51q-19 0 -32 -1t-27 -1 h-27q0 15 1 28v29v61q0 55 -5 217t-5 218q0 66 6 196q5 145 5 195q0 100 -8 190h105q23 0 41 16t18 35q0 17 -20 31q-19 12 -63 12h-244q-101 0 -101 -47z" />
<glyph unicode="j" horiz-adv-x="736" d="M115 -168q0 -25 24 -25q57 0 108 14q47 14 79.5 35.5t56.5 54.5q23 32 35.5 62t20.5 69q7 35 9 61t2 61v218q0 155 -10 432q-11 303 -11 431h105q24 0 40 13.5t16 34.5q0 19 -131.5 32.5t-233.5 13.5q-23 0 -45 -14t-22 -33q0 -8 6 -16q11 -12 42 -20q25 -8 59 -10l24 -2 l26 -2v-9q0 -182 12 -523q11 -365 11 -523q0 -168 -59 -233q-19 -21 -53.5 -36.5t-79.5 -30.5q-29 -11 -29 -21t-1 -17q-1 -8 -1 -17z" />
<glyph unicode="k" horiz-adv-x="844" d="M172 34q0 -30 18.5 -47.5t49.5 -17.5q42 0 42 48v379q0 208 74 356q14 -79 37 -179q31 -141 71 -278t86 -228q53 -102 100 -102q24 0 41 15.5t17 38.5t-9 43.5t-30 49.5l-27 37q-30 50 -75.5 184.5t-79 271t-33.5 192.5l2 61l2 61q16 32 171 288q49 79 49 82 q0 26 -23.5 40.5t-55.5 14.5q-24 0 -84 -103t-132 -249l-75 -150v73q0 327 27 373v6q0 26 -18.5 44.5t-44.5 18.5q-43 0 -61 -39q0 -115 -19 -330q-20 -226 -20 -332v-622z" />
<glyph unicode="l" horiz-adv-x="664" d="M180 39q0 -25 17.5 -46t40.5 -21q38 0 70 19q108 0 183 -24q25 3 43.5 18t18.5 36q0 60 -110 60q-28 0 -47 -1l-38 -2q-69 0 -69 141q0 69 4 164t4 162v25q0 58 12 86q0 83 -3 246q-3 164 -3 246q0 29 7 78t7 78q0 21 -15.5 36t-36.5 15q-71 0 -71 -194q0 -64 12 -192 v-15q0 -164 -13 -457q-13 -295 -13 -458z" />
<glyph unicode="m" horiz-adv-x="1186" d="M140 9q0 -20 18.5 -34.5t39.5 -14.5q38 0 53 16.5t15 51.5q0 16 -1 30l-2 31q0 100 5 258q4 120 9 224t13 263l12 231q37 -111 86 -294.5t84.5 -346t35.5 -222.5q0 -40 23 -64t62 -24t101 203q57 187 122 459q60 255 69 283q0 -51 -4 -126q-4 -76 -4 -127q0 -80 15 -256 q15 -175 15 -267v-131q-1 -59 -1 -131q0 -128 64 -128q30 0 49.5 27t19.5 61q0 16 -9 39l-4 41q-12 127 -12 145v1q0 36 3 108l2 108q0 144 -13 427t-13 442q0 25 -23 40.5t-52 15.5q-30 0 -69 -86q-37 -83 -76 -221q-60 -214 -131 -519q-27 -116 -38 -152 q-21 109 -93 352.5t-143 436t-98 192.5q-32 0 -55.5 -12.5t-23.5 -37.5q0 -20 12 -40q0 -216 -31 -626q-32 -424 -32 -626z" />
<glyph unicode="n" horiz-adv-x="1024" d="M172 829l2 -351l2 -351q0 -125 67 -125q25 0 43.5 19t18.5 45q0 13 -13 34l-8 14v1031q47 -108 135.5 -346t156.5 -444t68 -253v-5l-1 -4q5 -11 12 -40q7 -32 19 -45.5t38 -13.5q15 0 72 17q20 32 36.5 226.5t26 442.5t11.5 429v155q0 34 -15 57t-43 23q-51 0 -51 -61 l2 -28q1 -13 1 -27q0 -605 -41 -1039q-15 39 -71 237l-30 105q-63 223 -111.5 376t-104.5 282q-72 165 -120 165q-7 0 -15 -5v13q-75 -55 -75 -151q0 -63 -6 -191q-6 -127 -6 -191z" />
<glyph unicode="o" horiz-adv-x="880" d="M165 714q3 0 3 -10q0 -21 -1 -37t-1 -41q0 -127 17 -267q17 -151 75 -272q27 -59 72 -92t100 -33q273 0 273 589l-2 116l-2 116v15q0 98 -12 182q-12 86 -40.5 160t-69.5 125q-44 53 -110 83t-148 30q-28 0 -51 -21.5t-38 -62.5q-18 -47 -29 -90.5t-17 -99.5 q-8 -69 -11.5 -112t-4.5 -98q-1 -23 -1 -55q-2 -72 -2 -88v-37zM277 717q0 24 5 94t5 95q0 28 -1 55t-1 66q0 51 4 88.5t15 74.5q23 79 93 79q47 0 85 -26.5t60 -71t24 -94.5v-36q0 -72 14 -237q13 -153 13 -240q0 -74 -9 -182q-11 -121 -47 -224q-18 -52 -48.5 -81.5 t-66.5 -29.5q-31 0 -56.5 40.5t-40.5 111.5q-32 145 -40 299q-8 145 -8 219z" />
<glyph unicode="p" horiz-adv-x="700" d="M180 702q0 -23 12 -50q0 -74 -4 -182t-4 -183q0 -191 25 -301l43 -25q27 0 48 18t21 42q0 56 -8 194t-8 194v219q37 12 69 27q33 15 55.5 30t39.5 36q20 24 30.5 41.5t18.5 44.5q9 33 13 53.5t6 54.5q3 48 3 129q0 112 -42 200q-22 46 -65 72t-101 26h-90 q-20 0 -34.5 -21.5t-20.5 -50.5q16 -63 16 -190q0 -57 -1 -101l-2 -94q0 -134 -20 -176v-7zM302 1115v116q22 0 22 -3q29 0 49 -11t30.5 -26t16.5 -40q5 -23 6.5 -40.5t1.5 -51.5q0 -329 -122 -346v3l-2 184z" />
<glyph unicode="q" horiz-adv-x="862" d="M167 509q0 -78 3 -135t12 -119q9 -63 26 -111.5t45 -93.5q54 -88 164 -112l9 -45l10 -48q10 -53 15 -92q2 -19 6 -44q5 -44 5 -94q44 -47 158 -47v-2q21 0 34.5 14.5t13.5 35.5q0 58 -95 58q-8 38 -22 86q-18 65 -26 108.5t-8 82.5q67 29 105 144q20 62 33 121t21 130 q9 85 14 143.5t7 125.5q3 97 3 197q0 101 -10 198q-6 55 -19.5 101t-36.5 97q-44 95 -140 133q-16 7 -45 14q-36 9 -48 14q-50 0 -91 -33.5t-65 -93.5q-25 -63 -41 -126.5t-22 -136.5q-12 -136 -12 -225q0 -65 -1 -120zM269 699q0 47 6 131q7 118 19 215t35 166q26 77 60 77 q202 0 202 -419v-358q0 -54 -21 -176.5t-49 -219.5t-50 -97q-31 0 -60 -12q-52 0 -82 95q-32 101 -42 212q-13 143 -15 233q-1 24 -1 58q-2 82 -2 95z" />
<glyph unicode="r" horiz-adv-x="700" d="M172 1268q0 -185 18 -560q17 -386 17 -559l-2 -137l27 -30h57l23 55q-39 156 -39 427q0 64 1 113t1 109h25q18 -44 75 -335l14 -69q25 -123 64 -218q39 -99 82 -99q20 0 33 15t13 37q0 14 -5 28.5t-16 35.5l-13 26q-38 82 -65 181.5t-55 252.5l-39 195l32 60l39 74 q12 28 23 67t11 68v144q0 68 -33 116.5t-90.5 74t-129.5 25.5q-68 0 -68 -97zM276 1260q0 6 4 17l3 12q36 -1 59.5 -18.5t33.5 -49.5q9 -32 12 -58.5t3 -64.5q0 -52 -14 -119.5t-38.5 -121.5t-54.5 -70q0 90 -4 231q-4 140 -4 242z" />
<glyph unicode="s" horiz-adv-x="700" d="M180 51q4 -32 29 -52.5t63 -26.5v5q64 1 116 35.5t81 92.5q57 113 57 237q0 78 -17.5 154t-45.5 132q-43 84 -118 217q-29 49 -46.5 110t-17.5 120q0 51 21 118q11 35 30 57t42 23q21 -12 43 -12q20 0 35 10.5t15 28.5q0 34 -31.5 57.5t-69.5 23.5q-47 0 -84.5 -29.5 t-58.5 -78.5q-42 -94 -42 -187q0 -83 25 -161q19 -62 46 -115.5t69 -125.5l19 -33q39 -69 62.5 -142.5t23.5 -141.5q0 -80 -27 -177q-15 -53 -44 -86t-67 -33q-19 0 -47 7q-8 2 -38 8z" />
<glyph unicode="t" horiz-adv-x="682" d="M99 1316q0 -21 21 -35q35 -23 153 -26q3 -114 27 -542.5t32 -452.5l-3 -70l2 -78l2 -79l38 -27q27 0 48.5 18.5t21.5 42.5q0 201 -34 582t-34 581l2 12l2 9l41 -7q32 -7 53 -7q27 0 47.5 16t20.5 40q0 49 -64 49h-17q-7 -1 -16 -1q-50 0 -139 10q-93 9 -139 9 q-23 0 -44 -13t-21 -31z" />
<glyph unicode="u" horiz-adv-x="862" d="M172 1306l4 -94q5 -128 5 -199q0 -295 5 -540q0 -123 14 -226q8 -59 24 -105.5t41 -88.5q24 -40 63 -62t88 -22q264 0 264 909q0 10 -1 18q-1 7 -1 17q0 23 5 86q4 51 4 85q0 38 7 102t7 104q0 24 -2 48q-3 20 -19 35.5t-42 15.5q-32 0 -44 -11.5t-12 -36.5q0 -9 1 -16 v-18v-115q0 -1101 -146 -1101q-130 0 -130 150q0 68 -14 217q-15 144 -15 217v557q0 43 -19 80t-43 37q-25 0 -44 -43z" />
<glyph unicode="v" horiz-adv-x="844" d="M124 1319q0 -35 37 -146q12 -36 19 -63q94 -365 138 -616.5t44 -486.5l38 -31q49 0 85.5 67.5t57.5 185.5q19 105 31 210t22 234q9 113 18 163.5t37 152.5q34 121 51.5 205.5t17.5 156.5q0 18 -14.5 31.5t-32.5 13.5h-46q-16 -94 -77 -496q-65 -423 -111 -653 q-4 27 -14 110q-15 113 -25 182q-41 290 -71 438q-26 122 -49 205.5t-49 131.5q-28 52 -57 52q-19 0 -34.5 -14t-15.5 -33z" />
<glyph unicode="w" horiz-adv-x="970" d="M116 1293q17 -39 34 -195q17 -174 29 -342q19 -254 36 -411t44 -265q30 -123 71 -123q49 0 88 198q34 178 51.5 368.5t17.5 302.5q0 53 7 116l34 -215q22 -136 37 -239q14 -93 24.5 -216t10.5 -215q0 -32 18.5 -54t50.5 -22q45 0 59 41q10 34 10 80v37q0 110 32 372 q31 252 31 385v150q0 104 28 188v11q5 23 5 53v31q0 23 -14 35.5t-38 12.5q-63 0 -63 -50q0 -18 7 -35q0 -52 -15 -154q-16 -99 -16 -154q0 -390 -38 -677q-15 104 -29 265q-17 188 -38 323t-55 248v17q0 23 -17.5 36.5t-43.5 13.5l-55 -24q0 -135 -14 -311 q-13 -155 -27 -264t-46 -328q-5 141 -48 445q-43 301 -43 467q0 134 -66 134q-43 0 -59 -36z" />
<glyph unicode="x" horiz-adv-x="718" d="M156 1292q0 -32 19 -51v-22q15 -21 45.5 -142t56 -250t25.5 -167q0 -88 -29 -199l-19 -72q-34 -126 -51 -204t-17 -145q0 -21 18.5 -34t43.5 -13q53 0 53 76q0 19 -1 24q21 70 34 187q13 123 18 153l9 -49q8 -48 29 -153q16 -81 45 -156q13 -34 29.5 -53t33.5 -19 q22 0 38.5 15t16.5 36q0 51 -37 162l-9 28q-50 152 -76 247t-26 155q0 73 27 236t51 227v24q0 49 1 64q1 25 10 57t24 55l-38 48q-54 -14 -73 -44.5t-19 -87.5q0 -17 1 -32v-35q0 -42 -8 -108q-3 -29 -13 -84q-1 -4 -2 -9t-2 -12q-7 -37 -9 -51l-13 77q-6 36 -17 91l-5 25 q-17 78 -31 128.5t-31 82.5q-19 36 -41 36q-24 0 -42.5 -11.5t-18.5 -30.5z" />
<glyph unicode="y" d="M156 1288q0 -36 38 -147q32 -92 86.5 -232.5t75.5 -191.5v-53q1 -29 13 -144q11 -105 11 -156q0 -301 -23 -347q20 -45 57 -45q67 0 67 137v617q1 98 61 297q58 192 58 296q0 18 -15.5 30.5t-34.5 12.5q-40 0 -72 -101q-33 -104 -56 -231t-32 -153q-5 19 -22.5 84.5 t-43 147t-48.5 134.5q-39 88 -74 90l-46 -34v-11z" />
<glyph unicode="z" horiz-adv-x="718" d="M156 42q0 -20 16.5 -33t38.5 -13q12 0 37 11q24 11 36 11q21 0 61 -3q41 -3 60 -3q29 0 50 13.5t21 36.5q0 50 -83 50v-1q-14 0 -43 -3q-28 -3 -43 -3h-35q6 30 89 353q82 318 107 475q7 47 53 174q44 124 44 195q0 57 -101 57q-225 0 -225 -58q0 -22 16 -39.5t37 -17.5 q31 0 87 6l80 6q-32 -127 -115 -393q-94 -304 -141 -501t-47 -320z" />
<glyph unicode="{" d="M100 766q0 -44 50 -44q27 -2 40 -5q22 -4 35.5 -28.5t13.5 -67.5v-423q0 -126 45.5 -186t157.5 -60q22 0 50 5q29 5 51 21t22 38q0 14 -5 30t-12 16q-19 0 -60 -11q-40 -12 -61 -12q-92 0 -92 143v440q0 105 -34 146q36 47 36 179q0 50 -4 115t-4 95q0 251 98 251 q17 0 50 -9q31 -10 51 -10q23 0 40 12.5t17 33.5t-30 36q-48 24 -113 24q-97 0 -151 -59.5t-54 -155.5q0 -21 5 -54q-13 -22 -13 -96q0 -34 5 -119q1 -9 1 -25q4 -51 4 -70q0 -44 -14 -67q-13 -20 -31 -26t-44 -7q-50 -2 -50 -50z" />
<glyph unicode="|" horiz-adv-x="576" d="M222 1510q0 -263 7 -697q7 -435 7 -699q0 -194 51 -194q21 0 36.5 15t15.5 36v408l-2 577l-2 577q0 19 -12.5 35t-29.5 16q-71 0 -71 -74z" />
<glyph unicode="}" d="M172 12q0 -21 30 -36q48 -24 113 -24q97 0 150.5 59t53.5 155q0 32 -4 55q11 19 11 109q0 63 -4 144t-4 107q0 45 14 68q12 20 28 25.5t42 6.5q20 1 32.5 13t12.5 37q0 20 -9 30.5t-24 11.5q-35 0 -62 13q-16 6 -25 29.5t-9 60.5l-1 373q-1 125 -46.5 185.5t-155.5 60.5 q-26 0 -49 -4q-29 -5 -51.5 -21.5t-22.5 -38.5q0 -14 5 -30t12 -16q21 0 61 12q41 11 60 11q99 0 99 -281q0 -52 -5 -150l-5 -102q0 -100 37 -146q-38 -49 -38 -195q0 -40 5 -135t5 -110q0 -250 -98 -250q-20 0 -51 10q-33 9 -50 9q-23 0 -40 -12.5t-17 -33.5z" />
<glyph unicode="~" horiz-adv-x="972" d="M158 1105q0 -28 21 -43.5t53 -15.5q17 6 24 17t5 23t3.5 22.5t20.5 16.5q21 -1 47.5 -12t69.5 -33q34 -17 107 -29.5t164 -12.5q35 0 65.5 18t48.5 48.5t18 65.5q0 22 -17.5 37.5t-49.5 15.5q-19 0 -30.5 -12t-14.5 -29t-14 -29t-30 -12q-40 0 -166 42q-128 41 -177 41 q-67 0 -107.5 -34.5t-40.5 -84.5z" />
<glyph unicode="&#xa2;" horiz-adv-x="846" d="M174 777q0 -94 4 -151q3 -38 8.5 -61.5t18.5 -66.5q10 -31 26 -54t44 -51q46 -48 134 -80q0 -23 -4 -56t-4 -55l3 1q0 -28 4 -69t4 -69q0 -30 -4 -50l38 -35h9q19 0 33.5 14t14.5 34q0 37 -7 97t-7 97q0 23 8 79q40 4 88.5 26.5t82 56t33.5 67.5q0 60 -59 60 q-23 -35 -32 -47t-28 -32q-20 -21 -42 -30.5t-50 -10.5l-2 12q0 7 1 13q1 5 1 12q0 124 -29 376q-31 252 -32 365h5l58 -29q9 -24 28 -40t40 -16q17 0 29.5 16.5t12.5 34.5v5h2q-1 18 -12 35q-10 15 -24 25t-37 20q-28 11 -77 25l-34 9q-10 74 -10 117q0 23 5 65l-30 20h-7 q-52 0 -52 -88q0 -4 8 -84l3 -30q-78 -49 -112 -131q-19 -44 -29 -82t-15 -89q-5 -48 -6 -81t-1 -94zM273 790q0 101 16 194.5t49 140.5q57 -290 58 -701q-123 21 -123 366z" />
<glyph unicode="&#xa3;" horiz-adv-x="954" d="M118 918q0 -24 94 -24q13 -49 43 -155q35 -121 49.5 -200.5t14.5 -156.5q0 -65 -16.5 -133.5t-45.5 -90.5q-13 -10 -50 -24q-39 -15 -59 -33.5t-20 -47.5q0 -20 17 -32.5t41 -14.5v-4q38 21 99.5 44.5t84.5 24.5v-3q41 -5 128 -22q89 -19 153 -19q70 0 110 20 q38 20 38 49q0 20 -16 35t-39 15q-20 0 -54 -10q-38 -11 -56 -11q-48 0 -137 21q-92 20 -128 23q6 21 13 40q13 43 23 82q11 44 11 87q0 72 -17 158t-50 200q-31 110 -40 164l78 5q16 1 68 4q66 4 81 10q9 3 9 9q0 21 -15.5 36t-36.5 15q-57 0 -102 -1l-103 -2 q-19 89 -19 267v27q0 68 21 158q11 47 30 77t41 30q25 0 41 -17t23 -45l15 -52q9 -28 28 -45t47 -17q19 0 25.5 10.5t6.5 33.5q0 36 -24 90q-26 57 -67 98t-76 41h-25q-47 0 -82 -33q-34 -31 -53.5 -75t-31.5 -108q-11 -55 -14.5 -95t-3.5 -83q0 -47 12 -139q11 -86 13 -133 q-35 0 -52 -7t-21 -14t-4 -21v-6z" />
<glyph unicode="&#xa5;" horiz-adv-x="990" d="M53 1705q52 -46 98 -112q37 -53 65 -107.5t66 -136.5l11 -24q35 -74 77 -141t88 -113v-12q-45 -7 -102 -7l-78 2l-80 2l-25 -39v-7q0 -62 132 -62q30 0 93 5l60 5l1 -4q0 -39 -2 -71q-165 -8 -289 -8l-16 -52q18 -40 54 -60l31 -1h14q30 0 95 6q72 5 95 5h7 q0 -163 -13.5 -425.5t-29.5 -302.5v-5q0 -22 19.5 -35t45.5 -13q39 0 54 26t15 76v25q-1 11 -1 23q0 114 16 319q15 212 15 315h166l-21 -10h108q23 0 41.5 16t18.5 38q0 75 -160 75q-41 0 -88 -4t-60 -4v63l191 -2h9q113 0 113 57q0 61 -127 61q-28 0 -90 -5q-22 -2 -28 -2 l-37 -3l-25 3q7 31 32 91q26 62 32 88q29 118 80 264l92 266l2 10q0 23 -17 38.5t-41 15.5q-33 0 -75 -86q-35 -72 -62.5 -154t-64.5 -213l-10 -36q-31 -112 -41 -136q-18 29 -71 123l-114 195q-60 100 -122 174.5t-94 74.5q-16 0 -50 -15l-3 5v-59z" />
<glyph unicode="&#xa8;" horiz-adv-x="720" d="M107 1445q0 -28 21 -50.5t48 -22.5q36 0 58.5 21t22.5 54q0 30 -22 53.5t-51 23.5q-31 0 -54 -24t-23 -55zM437 1435q0 -28 21 -50.5t48 -22.5q36 0 58.5 21t22.5 54q0 30 -22 53.5t-51 23.5q-31 0 -54 -24t-23 -55z" />
<glyph unicode="&#xa9;" horiz-adv-x="1296" d="M134 924q0 -52 12 -264q0 -8 1 -14q5 -97 9 -144q15 -174 56 -284.5t138.5 -174t273.5 -63.5q93 0 168 25q74 24 128 66t95 104q40 59 65 125t41 149q14 77 20 149.5t6 158.5q0 85 -7 168q-7 90 -26 195t-46 199q-28 97 -74.5 188t-102.5 157q-60 69 -141.5 108.5 t-174.5 39.5q-80 0 -147 -35q-64 -34 -109 -89t-81 -137q-33 -75 -52.5 -153t-32.5 -174q-11 -84 -15 -153t-4 -147zM251 940q0 127 22 297q23 176 100 324q37 71 95.5 111.5t130.5 40.5q22 0 45 -10q19 -8 30 -14.5t24 -16.5t19 -14q84 -60 143 -153q54 -87 81 -169 t53 -215q6 -30 16 -70q23 -98 23 -157v-305q0 -14 -12 -52q-12 -37 -12 -54q0 -10 3 -19q-22 -92 -53 -158.5t-77 -118.5q-96 -106 -284 -106q-50 0 -89 10q-98 24 -147 91.5t-65 159t-26 253.5l-7 107q-12 150 -12 238h-1zM347 813q0 -131 8.5 -203.5t33.5 -140.5t83 -178 l58 -26q44 -22 73.5 -31t60.5 -9q40 0 91 18q55 19 95 54.5t40 74.5q0 28 -14.5 48t-39.5 20q-20 0 -41 -15.5t-38 -38.5q-17 -22 -44.5 -38t-58.5 -16q-49 0 -86 33q-35 31 -54 75.5t-31 113.5q-10 59 -13 102t-3 102v51q0 65 9 102h1l-4 10l6 70l3 38l5 61 q4 46 16.5 104.5t27.5 96.5q16 41 45 68.5t63 27.5q44 0 75 -58q16 -32 25 -48q14 -26 35 -42t47 -16q21 0 35.5 15.5t14.5 36.5q0 50 -38 102.5t-95 87t-108 34.5q-44 0 -83 -17q-38 -17 -65.5 -44t-49.5 -69q-22 -44 -36 -84.5t-23 -95.5q-10 -59 -15 -100.5t-7 -96.5 q-4 -77 -4 -167v-12z" />
<glyph unicode="&#xab;" horiz-adv-x="916" d="M108 697q0 -42 90 -226.5t193 -359.5q101 -170 121 -170q25 0 44.5 12.5t19.5 33.5q0 26 -51 120q-58 104 -115 198q-70 116 -125.5 224t-65.5 158q62 132 155 388q88 246 139 365q-1 22 -20 35.5t-44 13.5l-10 -2l-9 -2v-2q-21 -21 -39.5 -58t-21.5 -64l-44 -107 l-36 -87q-47 -112 -125 -307q-56 -141 -56 -163zM373 698q328 -705 360 -716q11 -4 40 -4q23 0 37.5 21t16.5 50l-26 20q-40 71 -175.5 345t-135.5 288q0 53 34 144.5t85 190.5q51 101 91 204t48 170l-45 35q-3 0 -4 1h-3q-34 0 -58 -57q-21 -48 -33 -101l-8 -34 q-11 -42 -118 -275q-105 -229 -106 -282z" />
<glyph unicode="&#xad;" horiz-adv-x="772" d="M164 715q0 -24 20 -41.5t47 -17.5q34 0 85 3q172 10 242 37q48 18 48 43t-20.5 42t-47.5 17q-33 0 -84 -3q-168 -10 -241 -37q-49 -18 -49 -43z" />
<glyph unicode="&#xae;" horiz-adv-x="1350" d="M158 757q0 -56 2 -138q2 -69 8.5 -148t16.5 -137q12 -70 32.5 -140t45.5 -121q29 -58 70 -108.5t90 -81.5q52 -34 121 -53.5t148 -19.5t142 25q67 25 112.5 61.5t81.5 98.5q39 67 61.5 123t38.5 136q17 88 25 147t12 146q5 90 5 192v68q0 75 -10.5 211.5t-28.5 292.5 q-20 168 -56 293.5t-77 150.5q-60 82 -142.5 132.5t-167.5 50.5q-79 0 -148 -23q-68 -24 -118 -62t-91 -97q-40 -57 -67.5 -118.5t-47.5 -140.5q-20 -78 -31 -147t-17 -153q-6 -78 -8 -137.5t-2 -142.5v-160zM278 954q0 878 425 878q31 0 78.5 -29.5t90 -72t58.5 -75.5 q74 -152 100.5 -333.5t26.5 -455.5v-80q-1 -36 -1 -80q0 -78 -1 -109q-1 -51 -6 -118t-13 -115q-10 -58 -26 -117.5t-36 -101.5q-23 -49 -57 -92.5t-73 -70.5q-44 -30 -101 -47.5t-123 -18.5l-19 8l-60 12q-13 10 -57 39q-43 27 -66 52q-140 155 -140 927zM421 1454 q0 -69 13 -190q12 -126 12 -189v-399q0 -39 12 -113q13 -79 14 -93q9 -91 9 -214v-24q-1 -11 -1 -24q0 -27 22 -46t51 -19q27 0 41.5 18.5t14.5 48.5q0 102 -22 293q-23 199 -23 293l3 63l2 32l55 23q13 -31 45 -167l18 -80q36 -154 60.5 -246t59.5 -172q45 -106 87 -106 q17 0 37 19t20 37q0 20 -15 57q-15 36 -15 58h-7q-179 588 -182 655q3 9 19 22q44 34 75 77q21 30 34 82.5t13 119.5q0 61 -4 102q-5 48 -20.5 98t-38.5 84q-26 37 -70.5 59t-102.5 22q-76 0 -123 -16.5t-70 -56t-23 -108.5zM535 1407q0 60 24 89t84 29q25 0 44.5 -12 t30.5 -35q13 -26 19.5 -48t9.5 -52q4 -59 4 -98v-8q0 -197 -185 -272q-23 92 -23 263q0 30 -4 74t-4 70z" />
<glyph unicode="&#xb4;" horiz-adv-x="702" d="M209 1339q0 -11 10 -19t23 -8q10 0 17 4q216 113 298 173q15 11 15 32q0 27 -21.5 52t-45.5 25q-6 0 -17 -4q-26 -25 -121 -105q-100 -86 -147 -129q-11 -11 -11 -21z" />
<glyph unicode="&#xb8;" horiz-adv-x="774" d="M230 -394q0 -25 28 -40t60 -15q39 0 75 26.5t58 65t22 70.5q0 195 -149 206q0 53 8 103l-59 -8v-23q0 -77 -17 -117q26 -41 56 -41q11 0 28 4q18 3 27 3q31 -24 31 -91q0 -57 -22.5 -100t-57.5 -43q-11 0 -33 11q-20 10 -33 10q-22 0 -22 -21z" />
<glyph unicode="&#xbb;" horiz-adv-x="934" d="M92 49q1 -29 15.5 -50.5t38.5 -21.5l19 2l19 2h4l357 717q-1 57 -106 283q-105 227 -118 274q-3 9 -10 42q-10 46 -26 85q-18 43 -60 62l-10 2l-45 -35q2 -58 28 -132q19 -56 44 -108t70 -141q9 -16 25 -48q41 -80 65.5 -153t24.5 -127q0 -13 -129.5 -275.5 t-180.5 -357.5zM344 -10q0 -21 19.5 -33.5t45.5 -12.5q20 0 121 170q103 176 192.5 360.5t89.5 225.5q0 24 -55 162q-70 176 -125 307q-6 15 -80 194q-4 29 -22.5 65t-39.5 57l-1 -1v2h-3l-4 2q-5 2 -11 2q-26 0 -44.5 -16t-20.5 -41q48 -71 90.5 -170.5t70.5 -194.5 q74 -252 135 -379q-10 -50 -65 -156t-127 -225q-63 -103 -114 -198q-52 -94 -52 -120z" />
<glyph unicode="&#xd3;" horiz-adv-x="880" d="M176 1038l2 -129q1 -54 1 -110q0 -32 2 -108q3 -66 10.5 -151.5t19.5 -157.5q13 -82 36 -164t52 -139q31 -62 77.5 -99t100.5 -37q57 0 103 48q45 45 69 106t24 118q0 80 13 135v9q0 43 9 128q9 86 9 131v118q0 122 -7 273q-3 75 -12 136t-25 140q-14 66 -37 117t-56 97 q-31 42 -75 64t-97 22q-39 0 -73 -17q-33 -18 -55 -46.5t-39 -72.5q-32 -85 -42 -193q-10 -96 -10 -218zM271 852v9q0 11 2 107l1 38q2 84 15 207q9 93 40 184q28 80 76 80q36 0 66.5 -28t51.5 -81q44 -113 61 -250q19 -167 24 -276q3 -97 3 -189q0 -65 -4 -136 q-7 -116 -19 -216.5t-37 -168.5q-29 -77 -70 -77q-47 0 -85 71q-36 66 -58.5 162t-39.5 227q-27 201 -27 337zM383 1685q0 -11 10 -19t23 -8q10 0 17 4q216 113 298 173q15 11 15 32q0 27 -21.5 52t-45.5 25q-6 0 -17 -4q-26 -25 -121 -105q-101 -85 -147 -129 q-11 -11 -11 -21z" />
<glyph unicode="&#xf3;" horiz-adv-x="880" d="M165 714q3 0 3 -10q0 -21 -1 -37t-1 -41q0 -127 17 -267q17 -151 75 -272q27 -59 72 -92t100 -33q273 0 273 589l-2 116l-2 116v15q0 98 -12 182q-12 86 -40.5 160t-69.5 125q-44 53 -110 83t-148 30q-28 0 -51 -21.5t-38 -62.5q-18 -47 -29 -90.5t-17 -99.5 q-8 -69 -11.5 -112t-4.5 -98q-1 -23 -1 -55q-2 -72 -2 -88v-37zM277 717q0 24 5 94t5 95q0 28 -1 55t-1 66q0 51 4 88.5t15 74.5q23 79 93 79q47 0 85 -26.5t60 -71t24 -94.5v-36q0 -72 14 -237q13 -153 13 -240q0 -74 -9 -182q-11 -121 -47 -224q-18 -52 -48.5 -81.5 t-66.5 -29.5q-31 0 -56.5 40.5t-40.5 111.5q-32 145 -40 299q-8 145 -8 219zM413 1514q0 -11 10 -19t23 -8q10 0 17 4q216 113 298 173q15 11 15 32q0 27 -21.5 52t-45.5 25q-6 0 -17 -4q-26 -25 -121 -105q-101 -86 -147 -129q-11 -11 -11 -21z" />
<glyph unicode="&#x104;" horiz-adv-x="826" d="M124 64q19 27 51 192q27 141 67 375q46 272 84 457.5t80 312.5q46 142 90 142q43 0 66 -18q0 -76 40 -395t40 -420q0 -96 22 -310q21 -220 21 -330q0 -44 -29 -61q-175 -147 -175 -259q0 -25 11 -41q6 -10 16 -10q39 0 86 33l14 -34q0 -17 -17.5 -31.5t-42.5 -23.5 t-46 -9q-41 0 -66 31.5t-25 75.5q0 74 49 141.5t130 120.5q-18 5 -27 17t-9 34v267q-27 19 -99.5 33.5t-139.5 18.5q-20 -34 -34 -104l-6 -31q-16 -82 -29 -133t-32 -82q-79 0 -90 41zM328 464q87 -23 182 -23q18 0 42 6q-3 44 -21 223q-47 474 -47 566q0 15 1 18 q-20 -20 -56 -185t-67 -354.5t-34 -250.5z" />
<glyph unicode="&#x105;" horiz-adv-x="790" d="M124 44q0 3 3 10l2 8q137 529 205 1038q4 44 7 83q5 76 13 121.5t24 68.5h69q30 0 50 -13.5t20 -38.5q0 -156 42 -463q41 -311 41 -442q0 -17 11 -63t11 -63q0 -22 20 -122q19 -95 19 -127v-2q0 -45 -34 -58h-13q-143 -128 -143 -231q0 -25 11 -41q6 -10 16 -10 q40 0 86 33l14 -34q0 -17 -17.5 -31.5t-42.5 -23.5t-46 -9q-41 0 -66 31.5t-25 75.5q0 70 44 134.5t119 117.5q-28 16 -28 56q0 65 -22 209l-8 44l-202 30q-17 -59 -34 -190q-13 -101 -39 -133q-17 -20 -42 -20t-45 16t-20 39zM312 408q34 -22 181 -33q-6 30 -6 76 q0 97 -8 203.5t-25 267.5q-14 121 -22 212q-93 -515 -120 -726z" />
<glyph unicode="&#x106;" horiz-adv-x="898" d="M164 792q0 -90 3 -162q2 -81 10 -167.5t21 -149.5q15 -73 39 -139.5t54 -107.5q34 -46 82 -72.5t106 -26.5q30 0 67 5q34 5 68 17t59 30q26 19 41.5 49t15.5 67q-31 31 -60 31q-24 0 -77 -36q-52 -37 -87 -37q-85 0 -133 76q-26 41 -42.5 84t-27.5 101q-12 67 -18.5 118 t-8.5 116q-5 115 -5 219v49q0 24 9 72q9 47 9 71t-3 70q-3 47 -3 71q0 49 1 66q1 28 5.5 64t11.5 57q9 26 24 50t34 38q49 33 126 33v-5h28v1q6 -11 29 -18t44 -7q24 0 40.5 12.5t16.5 33.5q0 29 -21.5 51.5t-55 35.5t-66.5 13q-92 0 -166.5 -34t-117 -96.5t-42.5 -144.5 q0 -31 6 -64q-14 -75 -14 -189q0 -60 -1 -115t-1 -130zM433 1685q0 -11 10 -19t23 -8q10 0 17 4q216 113 298 173q15 11 15 32q0 27 -21.5 52t-45.5 25q-6 0 -17 -4q-26 -25 -121 -105q-101 -86 -147 -129q-11 -11 -11 -21z" />
<glyph unicode="&#x107;" d="M164 615q0 -38 1 -65v-55q0 -393 136 -481q26 -16 77 -29.5t95 -13.5q113 0 113 81q0 22 -18 33.5t-44 11.5q-19 -18 -44 -18q-39 0 -68 13q-30 12 -50 31t-34 49q-15 28 -22.5 56.5t-12.5 66.5q-7 57 -7 127q0 51 5 198q4 116 4 197v10q0 94 26 246q14 82 45 133.5 t71 51.5h96q18 1 31 17t13 37q0 23 -16 37.5t-47 14.5q-73 0 -127 -22q-58 -23 -93.5 -56t-60.5 -91q-27 -63 -40 -114t-19 -130t-8 -134t-2 -153v-49zM433 1514q0 -11 10 -19t23 -8q10 0 17 4q216 113 298 173q15 11 15 32q0 27 -21.5 52t-45.5 25q-6 0 -17 -4 q-26 -25 -121 -105q-101 -86 -147 -129q-11 -11 -11 -21z" />
<glyph unicode="&#x118;" horiz-adv-x="718" d="M172 1454v7q34 55 51 72q25 0 76 9t76 9q33 0 63.5 -19.5t30.5 -47.5q0 -61 -93 -61q-16 0 -29 1t-30 1t-22 -1q0 -49 8 -169t8 -169q0 -32 -5 -119q-5 -88 -5 -115q-1 0 30 7q39 11 66 11q24 0 42 -17t18 -40q0 -26 -15.5 -44.5t-38.5 -18.5q-12 0 -23 1q-12 1 -28 1 q-30 0 -42 -15v-632l114 6q117 0 117 -54v-7q-13 -26 -45.5 -41.5t-62.5 -18.5l-21 -1q-151 -135 -151 -239q0 -25 11 -41q6 -10 16 -10q40 0 86 33l14 -34q0 -17 -17.5 -31.5t-42.5 -23.5t-46 -9q-41 0 -66 31.5t-25 75.5q0 69 42.5 132t114.5 115h-46q-25 0 -38.5 1.5 t-29.5 7.5q-34 12 -34 58v1190q0 32 -14 104t-14 105z" />
<glyph unicode="&#x119;" horiz-adv-x="700" d="M180 436q0 113 7 299t7 299q0 22 -5 87q-6 57 -6 86q0 145 86 145q39 0 98.5 -12.5t103 -33t43.5 -45.5q0 -21 -17 -37.5t-43 -26.5q-94 31 -155 39q3 -43 3 -88q0 -60 -4 -147q-5 -108 -5 -147l6 -32l33 2q17 1 40 1q99 0 99 -56q0 -22 -18.5 -38.5t-46.5 -16.5 q-30 0 -58 4h-52q6 -78 6 -155q0 -74 -4 -185q-5 -138 -5 -186q0 -115 4 -115l67 3l84 2q78 0 78 -50q0 -29 -25.5 -44t-62.5 -15h-23q-134 -124 -134 -223q0 -25 11 -41q6 -10 16 -10q40 0 86 33l14 -34q0 -17 -17.5 -31.5t-42.5 -23.5t-46 -9q-41 0 -66 31.5t-25 75.5 q0 64 36.5 123t100.5 109h-83q-28 0 -49.5 18.5t-22.5 44.5v54q0 22 -1 41l-2 43q0 33 -5 131q-5 97 -5 131z" />
<glyph unicode="&#x141;" horiz-adv-x="736" d="M124 803q0 -21 20 -35t47 -14q19 0 52 14q18 -424 18 -636q0 -15 -6 -44q-7 -28 -7 -46q0 -15 18.5 -26t40.5 -11q21 0 37 -1l31 -2q18 0 33 -1l33 -2q24 0 39 4l10 -3q11 -4 21 -4q22 0 37 17.5t15 40.5q0 31 -44 61h-156v52q0 344 -8 534v9q1 5 1 20q0 18 -1 33l-2 32 v2q213 32 213 100q0 22 -11.5 37t-26.5 15q-73 0 -176 -45q-2 82 -10 251l-1 29q-9 212 -9 328q0 24 -18.5 41.5t-43.5 17.5q-21 0 -35.5 -12t-14.5 -30q0 -218 18 -656q-114 -24 -114 -70z" />
<glyph unicode="&#x142;" d="M100 657q0 -17 8.5 -28t18.5 -11q40 0 109 32q-19 -472 -19 -611q0 -25 17.5 -46t40.5 -21q38 0 70 19q108 0 183 -24q25 3 43.5 18t18.5 36q0 60 -110 60q-49 0 -83 -1l-64 -2l-2 21q-5 70 -5 120q0 69 4 164t4 162v25q0 77 12 116q8 2 19.5 4.5t27.5 6.5q48 10 78 19 q33 10 52 22t19 33q0 15 -11 25.5t-26 10.5q-67 0 -160 -32l-2 177q-3 128 -3 196q0 29 7 78t7 78q0 21 -15.5 36t-36.5 15q-71 0 -71 -194q0 -64 12 -192v-15q0 -89 -4 -218q-139 -28 -139 -79z" />
<glyph unicode="&#x143;" horiz-adv-x="952" d="M172 812q0 -61 13 -291t13 -344q0 -33 -5 -86t-5 -61q0 -32 45 -32q27 0 49.5 13t22.5 31q0 91 -14 292q-15 194 -15 292v672q116 -462 247 -906q125 -422 168 -422q24 0 41.5 29.5t17.5 61.5v626q0 142 7 379q6 254 6 378q0 35 12 60v12q0 80 -55 80t-67 -51v-606 q0 -145 -4 -357t-4 -357l-2 10l-32 142q-82 353 -140 570q-103 380 -171 528q-41 89 -69 89q-45 0 -45 -102v-13q0 -72 -7 -188t-7 -188v-261zM455 1685q0 -11 10 -19t23 -8q10 0 17 4q216 113 298 173q15 11 15 32q0 27 -21.5 52t-45.5 25q-6 0 -17 -4q-26 -25 -121 -105 q-100 -85 -147 -129q-11 -11 -11 -21z" />
<glyph unicode="&#x144;" horiz-adv-x="1024" d="M172 829l2 -351l2 -351q0 -125 67 -125q25 0 43.5 19t18.5 45q0 13 -13 34l-8 14v1031q47 -108 135.5 -346t156.5 -444t68 -253v-5l-1 -4q5 -11 12 -40q7 -32 19 -45.5t38 -13.5q15 0 72 17q20 32 36.5 226.5t26 442.5t11.5 429v155q0 34 -15 57t-43 23q-51 0 -51 -61 l2 -28q1 -13 1 -27q0 -605 -41 -1039q-15 39 -71 237l-30 105q-63 223 -111.5 376t-104.5 282q-72 165 -120 165q-7 0 -15 -5v13q-75 -55 -75 -151q0 -63 -6 -191q-6 -127 -6 -191zM533 1514q0 -11 10 -19t23 -8q10 0 17 4q216 113 298 173q15 11 15 32q0 27 -21.5 52 t-45.5 25q-6 0 -17 -4q-26 -25 -121 -105q-100 -85 -147 -129q-11 -11 -11 -21z" />
<glyph unicode="&#x15a;" d="M148 24q0 -26 33 -42q52 -27 126 -27q67 0 123 36t90 97q32 58 49.5 124t17.5 130q0 92 -21 184.5t-56 165.5q-32 68 -128 257l-15 30q-35 69 -56 150.5t-21 160.5q0 38 12 78q12 42 40.5 73t64.5 35q29 -20 80 -20l35 44q-14 32 -49 53t-72 21q-74 0 -126 -48 q-52 -46 -77 -111.5t-25 -139.5q0 -92 30 -190q22 -73 52 -138.5t79 -160.5l29 -57q47 -93 75 -190t28 -184q0 -37 -9.5 -86t-27.5 -99q-19 -54 -51.5 -88t-70.5 -34q-16 0 -52 16q-37 15 -61 15q-22 0 -34 -15.5t-12 -39.5zM383 1685q0 -11 10 -19t23 -8q10 0 17 4 q216 113 298 173q15 11 15 32q0 27 -21.5 52t-45.5 25q-6 0 -17 -4q-26 -25 -121 -105q-101 -85 -147 -129q-11 -11 -11 -21z" />
<glyph unicode="&#x15b;" horiz-adv-x="700" d="M163 1574q0 -11 10 -19t23 -8q10 0 17 4q216 113 298 173q15 11 15 32q0 27 -21.5 52t-45.5 25q-6 0 -17 -4q-26 -25 -121 -105q-100 -85 -147 -129q-11 -11 -11 -21zM180 51q4 -32 29 -52.5t63 -26.5v5q64 1 116 35.5t81 92.5q57 113 57 237q0 78 -17.5 154t-45.5 132 q-43 84 -118 217q-29 49 -46.5 110t-17.5 120q0 51 21 118q11 35 30 57t42 23q21 -12 43 -12q20 0 35 10.5t15 28.5q0 34 -31.5 57.5t-69.5 23.5q-47 0 -84.5 -29.5t-58.5 -78.5q-42 -94 -42 -187q0 -83 25 -161q19 -62 46 -115.5t69 -125.5l19 -33q39 -69 62.5 -142.5 t23.5 -141.5q0 -80 -27 -177q-15 -53 -44 -86t-67 -33q-19 0 -47 7q-8 2 -38 8z" />
<glyph unicode="&#x179;" horiz-adv-x="682" d="M156 31q20 -50 58 -50q51 0 127 4q75 4 126 4l32 32v9q0 63 -108 63q-29 0 -64 -4t-44 -4q227 885 227 1420q0 24 -16 41.5t-40 17.5q-35 0 -96 -10q-68 -11 -97 -11q-33 0 -58 7v-1l-28 -34v-9q0 -65 111 -65q13 0 43 2l74 8q-7 -130 -45 -423q-42 -327 -100 -627 t-102 -370zM363 1685q0 -11 10 -19t23 -8q10 0 17 4q216 113 298 173q15 11 15 32q0 27 -21.5 52t-45.5 25q-6 0 -17 -4q-26 -25 -121 -105q-100 -85 -147 -129q-11 -11 -11 -21z" />
<glyph unicode="&#x17a;" horiz-adv-x="718" d="M156 42q0 -20 16.5 -33t38.5 -13q12 0 37 11q24 11 36 11q21 0 61 -3q41 -3 60 -3q29 0 50 13.5t21 36.5q0 50 -83 50v-1q-14 0 -43 -3q-28 -3 -43 -3h-35q6 30 89 353q82 318 107 475q7 47 53 174q44 124 44 195q0 57 -101 57q-225 0 -225 -58q0 -22 16 -39.5t37 -17.5 q31 0 87 6l80 6q-32 -127 -115 -393q-94 -304 -141 -501t-47 -320zM209 1539q0 -11 10 -19t23 -8q10 0 17 4q216 113 298 173q15 11 15 32q0 27 -21.5 52t-45.5 25q-6 0 -17 -4q-26 -25 -121 -105q-100 -86 -147 -129q-11 -11 -11 -21z" />
<glyph unicode="&#x17b;" horiz-adv-x="682" d="M156 31q44 70 102 370t100 627q36 284 45 416q-14 -2 -22 -2q-13 0 -22 4l-30 -3q-30 -2 -43 -2q-111 0 -111 65v9l28 34v1q25 -7 58 -7q17 0 59 5q10 20 29 33t40 13q16 0 31 -8t25 -22h9q24 0 40 -17.5t16 -41.5q0 -535 -227 -1420q9 0 44 4t64 4q108 0 108 -63v-9 l-32 -32q-51 0 -126 -4q-76 -4 -127 -4q-38 0 -58 50z" />
<glyph unicode="&#x17c;" horiz-adv-x="718" d="M156 42q0 -20 16.5 -33t38.5 -13q12 0 37 11q24 11 36 11q21 0 61 -3q41 -3 60 -3q29 0 50 13.5t21 36.5q0 50 -83 50v-1q-14 0 -43 -3q-28 -3 -43 -3h-35q6 30 89 353q82 318 107 475q7 47 53 174q44 124 44 195q0 57 -101 57q-225 0 -225 -58q0 -22 16 -39.5t37 -17.5 q31 0 87 6l80 6q-32 -127 -115 -393q-94 -304 -141 -501t-47 -320zM344 1593q0 -28 21 -50.5t48 -22.5q36 0 58.5 21t22.5 54q0 30 -22 53.5t-51 23.5q-31 0 -54 -24t-23 -55z" />
<glyph unicode="&#x2c6;" horiz-adv-x="702" d="M192 1404q0 -18 15.5 -29t36.5 -11q23 0 29 14l103 262l80 -276q5 -14 26 -14q19 0 33 11.5t14 31.5q0 8 -3 18q-16 58 -26 98l-26 99q-29 105 -52 138q-14 20 -29 20t-28 -5q-23 -10 -47 -49q-16 -27 -49 -108l-19 -48q-18 -47 -54 -133q-4 -8 -4 -19z" />
<glyph unicode="&#x2da;" horiz-adv-x="882" d="M263 1527q0 -70 31 -132q17 -34 51 -53.5t80 -19.5q51 0 87 16q36 15 58.5 37.5t37.5 55.5q23 47 23 97q0 18 -5 41q-6 22 -20.5 45t-35.5 40q-24 18 -61.5 29t-83.5 11q-47 0 -84 -21.5t-57.5 -59.5t-20.5 -86zM341 1486q0 59 23.5 96.5t71.5 37.5q61 0 91.5 -28.5 t30.5 -68.5q0 -35 -22 -74q-13 -22 -40 -35t-62 -13q-23 0 -44.5 13.5t-35 33.5t-13.5 38z" />
<glyph unicode="&#x2dc;" horiz-adv-x="828" d="M193 1436q0 -28 21 -43.5t53 -15.5q17 6 24 17t5 23t3.5 22.5t20.5 16.5q45 0 80 -43q15 -18 51.5 -31t86.5 -13q35 0 65.5 18t48.5 48.5t18 65.5q0 22 -17.5 37.5t-49.5 15.5q-19 0 -30.5 -12t-14.5 -29t-14 -29t-30 -12q-20 0 -84 42q-65 41 -89 41q-67 0 -107.5 -34.5 t-40.5 -84.5z" />
<glyph unicode="&#x2000;" horiz-adv-x="972" />
<glyph unicode="&#x2001;" horiz-adv-x="1944" />
<glyph unicode="&#x2002;" horiz-adv-x="972" />
<glyph unicode="&#x2003;" horiz-adv-x="1944" />
<glyph unicode="&#x2004;" horiz-adv-x="648" />
<glyph unicode="&#x2005;" horiz-adv-x="486" />
<glyph unicode="&#x2006;" horiz-adv-x="324" />
<glyph unicode="&#x2007;" horiz-adv-x="324" />
<glyph unicode="&#x2008;" horiz-adv-x="243" />
<glyph unicode="&#x2009;" horiz-adv-x="388" />
<glyph unicode="&#x200a;" horiz-adv-x="108" />
<glyph unicode="&#x2010;" horiz-adv-x="772" d="M164 715q0 -24 20 -41.5t47 -17.5q34 0 85 3q172 10 242 37q48 18 48 43t-20.5 42t-47.5 17q-33 0 -84 -3q-168 -10 -241 -37q-49 -18 -49 -43z" />
<glyph unicode="&#x2011;" horiz-adv-x="772" d="M164 715q0 -24 20 -41.5t47 -17.5q34 0 85 3q172 10 242 37q48 18 48 43t-20.5 42t-47.5 17q-33 0 -84 -3q-168 -10 -241 -37q-49 -18 -49 -43z" />
<glyph unicode="&#x2012;" horiz-adv-x="772" d="M164 715q0 -24 20 -41.5t47 -17.5q34 0 85 3q172 10 242 37q48 18 48 43t-20.5 42t-47.5 17q-33 0 -84 -3q-168 -10 -241 -37q-49 -18 -49 -43z" />
<glyph unicode="&#x2013;" horiz-adv-x="952" d="M132 691q0 -45 82 -45q74 0 282 -5t281 -5q21 0 34.5 13t13.5 34q0 58 -281 58q-27 0 -119 -2l-76 -2h-171q-21 0 -33.5 -12.5t-12.5 -33.5z" />
<glyph unicode="&#x2014;" horiz-adv-x="1096" d="M92 733q0 -59 123 -59l44 2l34 1l368 3l70 -3q55 -4 103 -4q172 0 172 52q0 57 -239 57q-58 0 -93 -1l-59 -2h-477q-21 0 -33.5 -12.5t-12.5 -33.5z" />
<glyph unicode="&#x2018;" horiz-adv-x="610" d="M196 1126q0 -45 21 -45q40 0 79 54t63 136q23 77 37 150t14 115q0 41 -22 41q-28 0 -74 -73q-47 -76 -82.5 -186t-35.5 -192z" />
<glyph unicode="&#x2019;" horiz-adv-x="592" d="M196 1119q0 -33 18 -38q38 0 83 73t75 177.5t30 191.5q0 45 -37 45q-44 0 -85 -104q-38 -94 -61 -198.5t-23 -146.5z" />
<glyph unicode="&#x201a;" horiz-adv-x="664" d="M244 -295q0 -34 18 -38q38 0 83 73t75 177.5t30 191.5q0 45 -37 45q-44 0 -85 -104q-38 -95 -61 -199t-23 -146z" />
<glyph unicode="&#x201c;" horiz-adv-x="772" d="M172 1126q0 -45 21 -45q40 0 79 54t63 136q23 77 37 150t14 115q0 41 -22 41q-28 0 -74 -73q-47 -76 -82.5 -186t-35.5 -192zM428 1136q0 -45 38 -45q44 0 86 105q37 95 60 199t23 146q0 33 -18 37q-38 0 -83 -73t-75.5 -178t-30.5 -191z" />
<glyph unicode="&#x201d;" horiz-adv-x="790" d="M172 1119q0 -33 18 -38q38 0 83 73t75 177.5t30 191.5q0 45 -37 45q-44 0 -85 -104q-38 -94 -61 -198.5t-23 -146.5zM431 1123q0 -41 22 -41q27 0 74 74q48 76 83 185.5t35 191.5q0 45 -21 45q-34 0 -59.5 -16t-41.5 -44q-14 -25 -26.5 -70t-20.5 -93q-27 -156 -45 -232z " />
<glyph unicode="&#x201e;" horiz-adv-x="790" d="M116 -333q0 -34 18 -38q38 0 83 73t75 177.5t30 191.5q0 45 -37 45q-44 0 -85 -104q-38 -95 -61 -199t-23 -146zM385 -329q0 -41 22 -41q27 0 74 74q48 76 83 185.5t35 191.5q0 45 -21 45q-40 0 -79 -54t-63 -135q-23 -77 -37 -150.5t-14 -115.5z" />
<glyph unicode="&#x2026;" horiz-adv-x="1078" d="M164 41q0 -28 21 -50.5t48 -22.5q36 0 58.5 21t22.5 54q0 30 -22 53.5t-51 23.5q-31 0 -54 -24t-23 -55zM459 41q0 -28 21 -50.5t48 -22.5q36 0 58.5 21t22.5 54q0 30 -22 53.5t-51 23.5q-31 0 -54 -24t-23 -55zM754 41q0 -28 21 -50.5t48 -22.5q36 0 58.5 21t22.5 54 q0 30 -22 53.5t-51 23.5q-31 0 -54 -24t-23 -55z" />
<glyph unicode="&#x202f;" horiz-adv-x="388" />
<glyph unicode="&#x2039;" d="M148 698q20 -40 103 -224q75 -170 133.5 -284.5t119.5 -207.5l20 -2l24 -2q23 0 37.5 21t16.5 50l-26 20q-40 71 -175.5 345t-135.5 288q0 53 34 144.5t85 190.5q51 101 91 204t48 170l-45 35q-3 0 -4 1h-3q-34 0 -58 -57q-21 -48 -33 -101l-8 -34q-11 -42 -118 -275 q-105 -229 -106 -282z" />
<glyph unicode="&#x203a;" d="M140 49q1 -29 15.5 -50.5t38.5 -21.5l19 2l19 2h4l357 717q-1 57 -106 283q-105 227 -118 274q-3 9 -10 42q-10 46 -26 85q-18 43 -60 62l-10 2l-45 -35q2 -58 28 -132q19 -56 44 -108t70 -141q9 -16 25 -48q41 -80 65.5 -153t24.5 -127q0 -13 -129.5 -275.5 t-180.5 -357.5z" />
<glyph unicode="&#x205f;" horiz-adv-x="486" />
<glyph unicode="&#x20ac;" horiz-adv-x="918" d="M102 845q0 -30 19 -37h72l4 -84h-16q-72 0 -72 -37q0 -20 13 -30l79 -3l7 -150q5 -110 15 -180q7 -45 18.5 -92.5t25.5 -81.5q15 -39 38 -74.5t49 -57.5q28 -24 66.5 -37.5t82.5 -13.5q30 0 67 5q34 5 68 17t59 30q26 19 41.5 49t15.5 67l-27 27q-29 -10 -65 -10 q-50 -59 -132 -59q-108 0 -154 67q-33 48 -69 493h17q9 -1 23 -1q158 0 158 48q0 19 -14 31q-46 -4 -190 -6l-5 86q144 5 188 10q14 12 14 31q0 28 -137 28h-40l-25 -1q11 107 11 261q0 49 1 66q1 28 5.5 64t11.5 57q9 26 24 50t34 38q49 33 126 33q11 0 47 -14 q34 -15 54 -15q24 0 40.5 12.5t16.5 33.5q0 29 -21.5 51.5t-55 35.5t-66.5 13q-92 0 -166.5 -34t-117 -97t-42.5 -145q0 -30 6 -63q-14 -82 -14 -188q0 -45 1 -81t1 -80h-45q-26 0 -35.5 -6t-9.5 -26z" />
<glyph unicode="&#x2122;" horiz-adv-x="1098" d="M21 1520q0 -45 82 -45q13 0 94 9q4 -33 4 -84q0 -33 -3 -101q-3 -67 -3 -101q0 -53 5 -205t5 -206v-30q0 -64 -11 -100l54 -28q69 18 69 62l-8 28q5 75 5 162q0 81 -6 244q-7 153 -7 244q0 63 5 118l58 -2q32 0 57 6q31 6 39 38q-15 -139 -15 -340q0 -78 1 -140t1 -139 q0 -36 -6 -110q-7 -69 -7 -110q0 -69 48 -69q77 0 77 172q0 35 -6 102q-6 68 -6 101q0 182 4 258q2 -8 22 -131q20 -125 46 -200q27 -78 66 -78q21 0 38.5 20.5t27.5 54.5q17 55 22 107l5 9q0 31 18 71q5 12 13 32l5 -106q3 -81 3 -125q0 -39 -6 -117q-6 -79 -6 -118 q0 -21 15 -34.5t39 -13.5q53 0 67 60q6 29 8 49.5t2 50.5v8l-1 -7q0 69 -7 184q-7 113 -7 183q0 66 11 217t11 217q0 21 -17 36.5t-39 15.5q-28 0 -42 -14q-10 -10 -14 -15.5t-8 -17.5q-7 -21 -11 -43l-5 -21q-49 -220 -113 -399q-4 32 -52 195q-47 159 -47 218q0 21 4 33 l-17 20q-24 21 -44 21t-46.5 -24.5t-28.5 -44.5v5l-39 39l-32 2l-33 2q-71 0 -315 -21l-23 -41v-13z" />
<glyph unicode="&#x25fc;" horiz-adv-x="1355" d="M0 0v1355h1355v-1355h-1355z" />
</font>
</defs>
</svg>
